<svg xmlns="http://www.w3.org/2000/svg" width="396" height="306" viewBox="0 0 396 306"><rect width="100%" height="100%" fill="white"/><rect x="8" y="8" width="190" height="58" fill="#f5f5f5" stroke="#222" stroke-width="2"/><text x="103" y="44" text-anchor="middle" font-family="Arial" font-size="20" font-weight="700">x</text><rect x="198" y="8" width="190" height="58" fill="#f5f5f5" stroke="#222" stroke-width="2"/><text x="293" y="44" text-anchor="middle" font-family="Arial" font-size="20" font-weight="700">g ( x )</text><rect x="8" y="66" width="190" height="58" fill="white" stroke="#222" stroke-width="2"/><text x="103" y="102" text-anchor="middle" font-family="Arial" font-size="20" font-weight="400">−1</text><rect x="198" y="66" width="190" height="58" fill="white" stroke="#222" stroke-width="2"/><text x="293" y="102" text-anchor="middle" font-family="Arial" font-size="20" font-weight="400">25</text><rect x="8" y="124" width="190" height="58" fill="white" stroke="#222" stroke-width="2"/><text x="103" y="160" text-anchor="middle" font-family="Arial" font-size="20" font-weight="400">0</text><rect x="198" y="124" width="190" height="58" fill="white" stroke="#222" stroke-width="2"/><text x="293" y="160" text-anchor="middle" font-family="Arial" font-size="20" font-weight="400">1</text><rect x="8" y="182" width="190" height="58" fill="white" stroke="#222" stroke-width="2"/><text x="103" y="218" text-anchor="middle" font-family="Arial" font-size="20" font-weight="400">1</text><rect x="198" y="182" width="190" height="58" fill="white" stroke="#222" stroke-width="2"/><text x="293" y="218" text-anchor="middle" font-family="Arial" font-size="20" font-weight="400">1/25</text><rect x="8" y="240" width="190" height="58" fill="white" stroke="#222" stroke-width="2"/><text x="103" y="276" text-anchor="middle" font-family="Arial" font-size="20" font-weight="400">2</text><rect x="198" y="240" width="190" height="58" fill="white" stroke="#222" stroke-width="2"/><text x="293" y="276" text-anchor="middle" font-family="Arial" font-size="20" font-weight="400">1/625</text></svg>