<svg aria-label="Graph of a curve in the x y plane with the origin labeled O. The x axis is labeled Number of months after purchase. It ranges from 0 to 24 in increments of 2, with values marked every 2 grid lines. The y axis is labeled Value, in dollars. It ranges from 0 to 375 in increments of 25, with values marked every 2 grid lines. Refer to long description." height="285.734375px" role="img" version="1.0.0" viewBox="0 0 370 285.734375" width="370px" xmlns="http://www.w3.org/2000/svg" xmlns:xlink="http://www.w3.org/1999/xlink"><defs><marker id="arrow" markerHeight="6px" markerUnits="userSpaceOnUse" markerWidth="10px" orient="auto" viewBox="0 -3 10 6"><path d="M0,-3 L10,0 L0,3" fill="currentColor"></path></marker></defs><g class="graph-group" transform="translate(146.59375, 25)"><g class="grid-group"><g class="x-grid"><line class="x-grid" stroke="#757576" stroke-width="0" x1="0.5" x2="0.5" y1="189.734375" y2="0"></line><line class="x-grid" stroke="#757576" stroke-width="0" x1="0.5" x2="0.5" y1="189.734375" y2="0"></line><line class="x-grid" stroke="#757576" stroke-width="1px" x1="15.213198061342592" x2="15.213198061342592" y1="189.734375" y2="0"></line><line class="x-grid" stroke="#757576" stroke-width="1px" x1="29.926396122685183" x2="29.926396122685183" y1="189.734375" y2="0"></line><line class="x-grid" stroke="#757576" stroke-width="1px" x1="44.63959418402778" x2="44.63959418402778" y1="189.734375" y2="0"></line><line class="x-grid" stroke="#757576" stroke-width="1px" x1="59.35279224537037" x2="59.35279224537037" y1="189.734375" y2="0"></line><line class="x-grid" stroke="#757576" stroke-width="1px" x1="74.06599030671296" x2="74.06599030671296" y1="189.734375" y2="0"></line><line class="x-grid" stroke="#757576" stroke-width="1px" x1="88.77918836805556" x2="88.77918836805556" y1="189.734375" y2="0"></line><line class="x-grid" stroke="#757576" stroke-width="1px" x1="103.49238642939815" x2="103.49238642939815" y1="189.734375" y2="0"></line><line class="x-grid" stroke="#757576" stroke-width="1px" x1="118.20558449074073" x2="118.20558449074073" y1="189.734375" y2="0"></line><line class="x-grid" stroke="#757576" stroke-width="1px" x1="132.91878255208334" x2="132.91878255208334" y1="189.734375" y2="0"></line><line class="x-grid" stroke="#757576" stroke-width="1px" x1="147.63198061342592" x2="147.63198061342592" y1="189.734375" y2="0"></line><line class="x-grid" stroke="#757576" stroke-width="1px" x1="162.3451786747685" x2="162.3451786747685" y1="189.734375" y2="0"></line><line class="x-grid" stroke="#757576" stroke-width="1px" x1="177.05837673611111" x2="177.05837673611111" y1="189.734375" y2="0"></line></g><g class="y-grid"><line class="y-grid" stroke="#757576" stroke-width="0" x1="0" x2="189.734375" y1="190.234375" y2="190.234375"></line><line class="y-grid" stroke="#757576" stroke-width="0" x1="0" x2="189.734375" y1="190.234375" y2="190.234375"></line><line class="y-grid" stroke="#757576" stroke-width="1px" x1="0" x2="189.734375" y1="178.3383308531746" y2="178.3383308531746"></line><line class="y-grid" stroke="#757576" stroke-width="1px" x1="0" x2="189.734375" y1="166.44228670634922" y2="166.44228670634922"></line><line class="y-grid" stroke="#757576" stroke-width="1px" x1="0" x2="189.734375" y1="154.5462425595238" y2="154.5462425595238"></line><line class="y-grid" stroke="#757576" stroke-width="1px" x1="0" x2="189.734375" y1="142.65019841269842" y2="142.65019841269842"></line><line class="y-grid" stroke="#757576" stroke-width="1px" x1="0" x2="189.734375" y1="130.754154265873" y2="130.754154265873"></line><line class="y-grid" stroke="#757576" stroke-width="1px" x1="0" x2="189.734375" y1="118.85811011904762" y2="118.85811011904762"></line><line class="y-grid" stroke="#757576" stroke-width="1px" x1="0" x2="189.734375" y1="106.96206597222222" y2="106.96206597222222"></line><line class="y-grid" stroke="#757576" stroke-width="1px" x1="0" x2="189.734375" y1="95.06602182539683" y2="95.06602182539683"></line><line class="y-grid" stroke="#757576" stroke-width="1px" x1="0" x2="189.734375" y1="83.16997767857143" y2="83.16997767857143"></line><line class="y-grid" stroke="#757576" stroke-width="1px" x1="0" x2="189.734375" y1="71.27393353174604" y2="71.27393353174604"></line><line class="y-grid" stroke="#757576" stroke-width="1px" x1="0" x2="189.734375" y1="59.37788938492065" y2="59.37788938492065"></line><line class="y-grid" stroke="#757576" stroke-width="1px" x1="0" x2="189.734375" y1="47.48184523809523" y2="47.48184523809523"></line><line class="y-grid" stroke="#757576" stroke-width="1px" x1="0" x2="189.734375" y1="35.585801091269836" y2="35.585801091269836"></line><line class="y-grid" stroke="#757576" stroke-width="1px" x1="0" x2="189.734375" y1="23.68975694444444" y2="23.68975694444444"></line><line class="y-grid" stroke="#757576" stroke-width="1px" x1="0" x2="189.734375" y1="11.793712797619047" y2="11.793712797619047"></line></g></g><g class="x-axis-group" fill="none" font-family="sans-serif" font-size="10" text-anchor="middle" transform="translate(0,189.734375)"><g class="tick x-tick" opacity="1" transform="translate(29.926396122685183,0)"><line stroke="currentColor" stroke-width="1px" y1="-6" y2="6"></line><text dy="0.71em" fill="currentColor" style="font-family: Noto Serif; font-size: 15px;" x="0" y="8">4</text></g><g class="tick x-tick" opacity="1" transform="translate(59.35279224537037,0)"><line stroke="currentColor" stroke-width="1px" y1="-6" y2="6"></line><text dy="0.71em" fill="currentColor" style="font-family: Noto Serif; font-size: 15px;" x="0" y="8">8</text></g><g class="tick x-tick" opacity="1" transform="translate(88.77918836805556,0)"><line stroke="currentColor" stroke-width="1px" y1="-6" y2="6"></line><text dy="0.71em" fill="currentColor" style="font-family: Noto Serif; font-size: 15px;" x="0" y="8">12</text></g><g class="tick x-tick" opacity="1" transform="translate(118.20558449074073,0)"><line stroke="currentColor" stroke-width="1px" y1="-6" y2="6"></line><text dy="0.71em" fill="currentColor" style="font-family: Noto Serif; font-size: 15px;" x="0" y="8">16</text></g><g class="tick x-tick" opacity="1" transform="translate(147.63198061342592,0)"><line stroke="currentColor" stroke-width="1px" y1="-6" y2="6"></line><text dy="0.71em" fill="currentColor" style="font-family: Noto Serif; font-size: 15px;" x="0" y="8">20</text></g><g class="tick x-tick" opacity="1" transform="translate(177.05837673611111,0)"><line stroke="currentColor" stroke-width="1px" y1="-6" y2="6"></line><text dy="0.71em" fill="currentColor" style="font-family: Noto Serif; font-size: 15px;" x="0" y="8">24</text></g><line class="x-axis-line" stroke="currentColor" stroke-width="1.5px" x1="-15" x2="189.734375"></line><line class="x-axis-line" marker-end="url(#arrow)" stroke="currentColor" stroke-width="1.5px" x1="-15" x2="189.734375"></line><text class="x-axis-label" style="text-anchor: start; dominant-baseline: middle; font-family: Noto Serif; font-style: italic; fill: currentColor; font-size: 15px;" transform="translate(201.734375,0)">x</text></g><g class="y-axis-group" fill="none" font-family="sans-serif" font-size="10" text-anchor="end" transform="translate(0,0)"><g class="tick y-tick" opacity="1" transform="translate(0,166.44228670634922)"><line stroke="currentColor" stroke-width="1px" x1="-6px" x2="6px"></line><text dy="0.32em" fill="currentColor" style="font-family: Noto Serif; font-size: 15px;" x="-8">50</text></g><g class="tick y-tick" opacity="1" transform="translate(0,142.65019841269842)"><line stroke="currentColor" stroke-width="1px" x1="-6px" x2="6px"></line><text dy="0.32em" fill="currentColor" style="font-family: Noto Serif; font-size: 15px;" x="-8">100</text></g><g class="tick y-tick" opacity="1" transform="translate(0,118.85811011904762)"><line stroke="currentColor" stroke-width="1px" x1="-6px" x2="6px"></line><text dy="0.32em" fill="currentColor" style="font-family: Noto Serif; font-size: 15px;" x="-8">150</text></g><g class="tick y-tick" opacity="1" transform="translate(0,95.06602182539683)"><line stroke="currentColor" stroke-width="1px" x1="-6px" x2="6px"></line><text dy="0.32em" fill="currentColor" style="font-family: Noto Serif; font-size: 15px;" x="-8">200</text></g><g class="tick y-tick" opacity="1" transform="translate(0,71.27393353174604)"><line stroke="currentColor" stroke-width="1px" x1="-6px" x2="6px"></line><text dy="0.32em" fill="currentColor" style="font-family: Noto Serif; font-size: 15px;" x="-8">250</text></g><g class="tick y-tick" opacity="1" transform="translate(0,47.48184523809523)"><line stroke="currentColor" stroke-width="1px" x1="-6px" x2="6px"></line><text dy="0.32em" fill="currentColor" style="font-family: Noto Serif; font-size: 15px;" x="-8">300</text></g><g class="tick y-tick" opacity="1" transform="translate(0,23.68975694444444)"><line stroke="currentColor" stroke-width="1px" x1="-6px" x2="6px"></line><text dy="0.32em" fill="currentColor" style="font-family: Noto Serif; font-size: 15px;" x="-8">350</text></g><line class="y-axis-line" stroke="currentColor" stroke-width="1.5px" y1="204.734375" y2="0"></line><line class="y-axis-line" marker-end="url(#arrow)" stroke="currentColor" stroke-width="1.5px" y1="204.734375" y2="0"></line><text class="y-axis-label" style="text-anchor: middle; dominant-baseline: text-after-edge; font-family: Noto Serif; font-style: italic; fill: currentColor; font-size: 15px;" transform="translate(0,-12)">y</text></g><text dx="-13.25px" dy="13.5px" fill="currentColor" style="font-size: 15px; font-style: italic; font-family: Noto Serif;" x="0" y="189.734375">O</text><path d="M0,82.67L2.133,84.97L4.28,87.23L6.447,89.455L8.629,91.642L10.834,93.796L13.054,95.912L15.293,97.993L17.55,100.039L19.827,102.05L20.973,103.042L22.127,104.028L23.284,105.005L24.445,105.972L25.61,106.929L26.783,107.88L27.959,108.821L29.143,109.756L30.331,110.682L31.522,111.598L32.722,112.507L33.925,113.407L35.135,114.3L36.349,115.184L37.567,116.058L38.793,116.926L40.026,117.787L41.263,118.639L42.504,119.481L43.753,120.317L45.009,121.146L46.269,121.965L47.536,122.778L48.807,123.582L50.086,124.379L51.372,125.169L52.663,125.95L53.96,126.724L55.266,127.491L56.575,128.249L57.892,129L59.216,129.744L60.548,130.482L61.884,131.21L63.227,131.932L64.578,132.646L65.936,133.354L67.299,134.053L68.672,134.746L70.05,135.431L71.435,136.109L72.828,136.78L74.228,137.444L75.636,138.102L77.051,138.752L78.474,139.395L79.897,140.028L81.328,140.654L82.766,141.274L84.215,141.888L85.669,142.493L87.134,143.094L88.606,143.687L90.086,144.274L91.573,144.854L93.072,145.428L94.575,145.995L96.089,146.555L97.611,147.11L99.144,147.658L100.684,148.2L102.233,148.735L103.792,149.265L105.359,149.787L106.934,150.303L108.52,150.814L110.114,151.318L111.719,151.816L113.336,152.309L114.96,152.795L116.596,153.276L118.242,153.751L119.897,154.219L121.563,154.682L123.24,155.139L124.925,155.589L126.625,156.035L128.333,156.475L130.052,156.908L131.782,157.337L133.52,157.758L135.273,158.176L137.038,158.587L138.813,158.993L140.601,159.393L142.399,159.788L144.213,160.178L146.039,160.563L147.875,160.942L149.727,161.316L151.59,161.685L153.465,162.048L155.355,162.406L157.259,162.76L159.176,163.108L161.107,163.451L163.054,163.789L165.012,164.122L166.985,164.451L168.974,164.774L170.977,165.092L172.996,165.406L175.03,165.715L177.083,166.019L179.147,166.319L181.23,166.614L183.329,166.904L185.446,167.19L187.579,167.471L189.731,167.747" fill="none" stroke="black" stroke-dasharray="none" stroke-width="2px"></path></g><g class="xtitle-group" transform="translate(241.4609375, 245.734375)"><text class="xtitle-group-line-0" fill="currentColor" style="font-family: Noto Serif; font-size: 15px; text-anchor: middle; dominant-baseline: hanging;" transform="translate(0, 0)">Number of months</text><text class="xtitle-group-line-1" fill="currentColor" style="font-family: Noto Serif; font-size: 15px; text-anchor: middle; dominant-baseline: hanging;" transform="translate(0, 20)">after purchase</text></g><g class="ytitle-group" transform="translate(52.296875, 119.8671875)"><text class="ytitle-group-line-0" fill="currentColor" style="font-family: Noto Serif; font-size: 15px; text-anchor: middle; dominant-baseline: text-before-edge;" transform="translate(0, 0)">Value (dollars)</text></g></svg>