<svg xmlns="http://www.w3.org/2000/svg" width="806" height="432" viewBox="0 0 806 432"><rect width="100%" height="100%" fill="white"/><text x="403" y="36" text-anchor="middle" font-family="Arial" font-size="22" font-weight="700">Properties of Select Rotating Radio Transients</text><rect x="8" y="62" width="180" height="72" fill="#f5f5f5" stroke="#222" stroke-width="2"/><text x="98" y="105" text-anchor="middle" font-family="Arial" font-size="20" font-weight="700">Name</text><rect x="188" y="62" width="230" height="72" fill="#f5f5f5" stroke="#222" stroke-width="2"/><text x="303" y="92.5" text-anchor="middle" font-family="Arial" font-size="20" font-weight="700">Right ascension</text><text x="303" y="117.5" text-anchor="middle" font-family="Arial" font-size="20" font-weight="700">(hours)</text><rect x="418" y="62" width="190" height="72" fill="#f5f5f5" stroke="#222" stroke-width="2"/><text x="513" y="105" text-anchor="middle" font-family="Arial" font-size="20" font-weight="700">Period (seconds)</text><rect x="608" y="62" width="190" height="72" fill="#f5f5f5" stroke="#222" stroke-width="2"/><text x="703" y="92.5" text-anchor="middle" font-family="Arial" font-size="20" font-weight="700">Frequency</text><text x="703" y="117.5" text-anchor="middle" font-family="Arial" font-size="20" font-weight="700">(hertz)</text><rect x="8" y="134" width="180" height="58" fill="#f5f5f5" stroke="#222" stroke-width="2"/><text x="98" y="170" text-anchor="middle" font-family="Arial" font-size="20" font-weight="700">J0545-03</text><rect x="188" y="134" width="230" height="58" fill="white" stroke="#222" stroke-width="2"/><text x="303" y="170" text-anchor="middle" font-family="Arial" font-size="20" font-weight="400">5:45</text><rect x="418" y="134" width="190" height="58" fill="white" stroke="#222" stroke-width="2"/><text x="513" y="170" text-anchor="middle" font-family="Arial" font-size="20" font-weight="400">1.074</text><rect x="608" y="134" width="190" height="58" fill="white" stroke="#222" stroke-width="2"/><text x="703" y="170" text-anchor="middle" font-family="Arial" font-size="20" font-weight="400">0.931</text><rect x="8" y="192" width="180" height="58" fill="#f5f5f5" stroke="#222" stroke-width="2"/><text x="98" y="228" text-anchor="middle" font-family="Arial" font-size="20" font-weight="700">J1654-2335</text><rect x="188" y="192" width="230" height="58" fill="white" stroke="#222" stroke-width="2"/><text x="303" y="228" text-anchor="middle" font-family="Arial" font-size="20" font-weight="400">16:54:03</text><rect x="418" y="192" width="190" height="58" fill="white" stroke="#222" stroke-width="2"/><text x="513" y="228" text-anchor="middle" font-family="Arial" font-size="20" font-weight="400">0.545</text><rect x="608" y="192" width="190" height="58" fill="white" stroke="#222" stroke-width="2"/><text x="703" y="228" text-anchor="middle" font-family="Arial" font-size="20" font-weight="400">1.834</text><rect x="8" y="250" width="180" height="58" fill="#f5f5f5" stroke="#222" stroke-width="2"/><text x="98" y="286" text-anchor="middle" font-family="Arial" font-size="20" font-weight="700">J0103+54</text><rect x="188" y="250" width="230" height="58" fill="white" stroke="#222" stroke-width="2"/><text x="303" y="286" text-anchor="middle" font-family="Arial" font-size="20" font-weight="400">1:03:37</text><rect x="418" y="250" width="190" height="58" fill="white" stroke="#222" stroke-width="2"/><text x="513" y="286" text-anchor="middle" font-family="Arial" font-size="20" font-weight="400">0.354</text><rect x="608" y="250" width="190" height="58" fill="white" stroke="#222" stroke-width="2"/><text x="703" y="286" text-anchor="middle" font-family="Arial" font-size="20" font-weight="400">2.822</text><rect x="8" y="308" width="180" height="58" fill="#f5f5f5" stroke="#222" stroke-width="2"/><text x="98" y="344" text-anchor="middle" font-family="Arial" font-size="20" font-weight="700">J0121+53</text><rect x="188" y="308" width="230" height="58" fill="white" stroke="#222" stroke-width="2"/><text x="303" y="344" text-anchor="middle" font-family="Arial" font-size="20" font-weight="400">1:21</text><rect x="418" y="308" width="190" height="58" fill="white" stroke="#222" stroke-width="2"/><text x="513" y="344" text-anchor="middle" font-family="Arial" font-size="20" font-weight="400">2.725</text><rect x="608" y="308" width="190" height="58" fill="white" stroke="#222" stroke-width="2"/><text x="703" y="344" text-anchor="middle" font-family="Arial" font-size="20" font-weight="400">0.367</text><rect x="8" y="366" width="180" height="58" fill="#f5f5f5" stroke="#222" stroke-width="2"/><text x="98" y="402" text-anchor="middle" font-family="Arial" font-size="20" font-weight="700">J0614-03</text><rect x="188" y="366" width="230" height="58" fill="white" stroke="#222" stroke-width="2"/><text x="303" y="402" text-anchor="middle" font-family="Arial" font-size="20" font-weight="400">6:15</text><rect x="418" y="366" width="190" height="58" fill="white" stroke="#222" stroke-width="2"/><text x="513" y="402" text-anchor="middle" font-family="Arial" font-size="20" font-weight="400">0.136</text><rect x="608" y="366" width="190" height="58" fill="white" stroke="#222" stroke-width="2"/><text x="703" y="402" text-anchor="middle" font-family="Arial" font-size="20" font-weight="400">7.353</text></svg>