<svg xmlns="http://www.w3.org/2000/svg" width="956" height="412" viewBox="0 0 956 412"><rect width="100%" height="100%" fill="white"/><text x="478" y="39" text-anchor="middle" font-family="Arial,sans-serif" font-size="23" font-weight="700" fill="#111">Characteristics of Five Recently Discovered Gas Exoplanets</text><rect x="8" y="64" width="220" height="70" fill="#f5f5f5" stroke="#222" stroke-width="2"/><text x="118" y="93.3" text-anchor="middle" font-family="Arial,sans-serif" font-size="18" font-weight="700" fill="#111">Exoplanet</text><text x="118" y="117.3" text-anchor="middle" font-family="Arial,sans-serif" font-size="18" font-weight="700" fill="#111">designation</text><rect x="228" y="64" width="155" height="70" fill="#f5f5f5" stroke="#222" stroke-width="2"/><text x="305.5" y="93.3" text-anchor="middle" font-family="Arial,sans-serif" font-size="18" font-weight="700" fill="#111">Mass</text><text x="305.5" y="117.3" text-anchor="middle" font-family="Arial,sans-serif" font-size="18" font-weight="700" fill="#111">(Jupiters)</text><rect x="383" y="64" width="165" height="70" fill="#f5f5f5" stroke="#222" stroke-width="2"/><text x="465.5" y="93.3" text-anchor="middle" font-family="Arial,sans-serif" font-size="18" font-weight="700" fill="#111">Radius</text><text x="465.5" y="117.3" text-anchor="middle" font-family="Arial,sans-serif" font-size="18" font-weight="700" fill="#111">(Jupiters)</text><rect x="548" y="64" width="180" height="70" fill="#f5f5f5" stroke="#222" stroke-width="2"/><text x="638" y="93.3" text-anchor="middle" font-family="Arial,sans-serif" font-size="18" font-weight="700" fill="#111">Orbital period</text><text x="638" y="117.3" text-anchor="middle" font-family="Arial,sans-serif" font-size="18" font-weight="700" fill="#111">(days)</text><rect x="728" y="64" width="220" height="70" fill="#f5f5f5" stroke="#222" stroke-width="2"/><text x="838" y="93.3" text-anchor="middle" font-family="Arial,sans-serif" font-size="18" font-weight="700" fill="#111">Distance from the</text><text x="838" y="117.3" text-anchor="middle" font-family="Arial,sans-serif" font-size="18" font-weight="700" fill="#111">Sun (parsecs)</text><rect x="8" y="134" width="220" height="54" fill="#f5f5f5" stroke="#222" stroke-width="2"/><text x="118" y="167.3" text-anchor="middle" font-family="Arial,sans-serif" font-size="18" font-weight="700" fill="#111">TOI-640 b</text><rect x="228" y="134" width="155" height="54" fill="white" stroke="#222" stroke-width="2"/><text x="305.5" y="167.3" text-anchor="middle" font-family="Arial,sans-serif" font-size="18" font-weight="400" fill="#111">0.88</text><rect x="383" y="134" width="165" height="54" fill="white" stroke="#222" stroke-width="2"/><text x="465.5" y="167.3" text-anchor="middle" font-family="Arial,sans-serif" font-size="18" font-weight="400" fill="#111">1.771</text><rect x="548" y="134" width="180" height="54" fill="white" stroke="#222" stroke-width="2"/><text x="638" y="167.3" text-anchor="middle" font-family="Arial,sans-serif" font-size="18" font-weight="400" fill="#111">5.003</text><rect x="728" y="134" width="220" height="54" fill="white" stroke="#222" stroke-width="2"/><text x="838" y="167.3" text-anchor="middle" font-family="Arial,sans-serif" font-size="18" font-weight="400" fill="#111">340</text><rect x="8" y="188" width="220" height="54" fill="#f5f5f5" stroke="#222" stroke-width="2"/><text x="118" y="221.3" text-anchor="middle" font-family="Arial,sans-serif" font-size="18" font-weight="700" fill="#111">TOI-1601 b</text><rect x="228" y="188" width="155" height="54" fill="white" stroke="#222" stroke-width="2"/><text x="305.5" y="221.3" text-anchor="middle" font-family="Arial,sans-serif" font-size="18" font-weight="400" fill="#111">0.99</text><rect x="383" y="188" width="165" height="54" fill="white" stroke="#222" stroke-width="2"/><text x="465.5" y="221.3" text-anchor="middle" font-family="Arial,sans-serif" font-size="18" font-weight="400" fill="#111">1.239</text><rect x="548" y="188" width="180" height="54" fill="white" stroke="#222" stroke-width="2"/><text x="638" y="221.3" text-anchor="middle" font-family="Arial,sans-serif" font-size="18" font-weight="400" fill="#111">5.331</text><rect x="728" y="188" width="220" height="54" fill="white" stroke="#222" stroke-width="2"/><text x="838" y="221.3" text-anchor="middle" font-family="Arial,sans-serif" font-size="18" font-weight="400" fill="#111">336</text><rect x="8" y="242" width="220" height="54" fill="#f5f5f5" stroke="#222" stroke-width="2"/><text x="118" y="275.3" text-anchor="middle" font-family="Arial,sans-serif" font-size="18" font-weight="700" fill="#111">TOI-628 b</text><rect x="228" y="242" width="155" height="54" fill="white" stroke="#222" stroke-width="2"/><text x="305.5" y="275.3" text-anchor="middle" font-family="Arial,sans-serif" font-size="18" font-weight="400" fill="#111">6.33</text><rect x="383" y="242" width="165" height="54" fill="white" stroke="#222" stroke-width="2"/><text x="465.5" y="275.3" text-anchor="middle" font-family="Arial,sans-serif" font-size="18" font-weight="400" fill="#111">1.060</text><rect x="548" y="242" width="180" height="54" fill="white" stroke="#222" stroke-width="2"/><text x="638" y="275.3" text-anchor="middle" font-family="Arial,sans-serif" font-size="18" font-weight="400" fill="#111">3.409</text><rect x="728" y="242" width="220" height="54" fill="white" stroke="#222" stroke-width="2"/><text x="838" y="275.3" text-anchor="middle" font-family="Arial,sans-serif" font-size="18" font-weight="400" fill="#111">178</text><rect x="8" y="296" width="220" height="54" fill="#f5f5f5" stroke="#222" stroke-width="2"/><text x="118" y="329.3" text-anchor="middle" font-family="Arial,sans-serif" font-size="18" font-weight="700" fill="#111">TOI-1478 b</text><rect x="228" y="296" width="155" height="54" fill="white" stroke="#222" stroke-width="2"/><text x="305.5" y="329.3" text-anchor="middle" font-family="Arial,sans-serif" font-size="18" font-weight="400" fill="#111">0.85</text><rect x="383" y="296" width="165" height="54" fill="white" stroke="#222" stroke-width="2"/><text x="465.5" y="329.3" text-anchor="middle" font-family="Arial,sans-serif" font-size="18" font-weight="400" fill="#111">1.060</text><rect x="548" y="296" width="180" height="54" fill="white" stroke="#222" stroke-width="2"/><text x="638" y="329.3" text-anchor="middle" font-family="Arial,sans-serif" font-size="18" font-weight="400" fill="#111">10.180</text><rect x="728" y="296" width="220" height="54" fill="white" stroke="#222" stroke-width="2"/><text x="838" y="329.3" text-anchor="middle" font-family="Arial,sans-serif" font-size="18" font-weight="400" fill="#111">153</text><rect x="8" y="350" width="220" height="54" fill="#f5f5f5" stroke="#222" stroke-width="2"/><text x="118" y="383.3" text-anchor="middle" font-family="Arial,sans-serif" font-size="18" font-weight="700" fill="#111">TOI-1333 b</text><rect x="228" y="350" width="155" height="54" fill="white" stroke="#222" stroke-width="2"/><text x="305.5" y="383.3" text-anchor="middle" font-family="Arial,sans-serif" font-size="18" font-weight="400" fill="#111">2.37</text><rect x="383" y="350" width="165" height="54" fill="white" stroke="#222" stroke-width="2"/><text x="465.5" y="383.3" text-anchor="middle" font-family="Arial,sans-serif" font-size="18" font-weight="400" fill="#111">1.396</text><rect x="548" y="350" width="180" height="54" fill="white" stroke="#222" stroke-width="2"/><text x="638" y="383.3" text-anchor="middle" font-family="Arial,sans-serif" font-size="18" font-weight="400" fill="#111">4.720</text><rect x="728" y="350" width="220" height="54" fill="white" stroke="#222" stroke-width="2"/><text x="838" y="383.3" text-anchor="middle" font-family="Arial,sans-serif" font-size="18" font-weight="400" fill="#111">200</text></svg>