<svg xmlns="http://www.w3.org/2000/svg" width="676" height="394" viewBox="0 0 676 394"><rect width="100%" height="100%" fill="white"/><rect x="8" y="8" width="160" height="108" fill="#f5f5f5" stroke="#222" stroke-width="2"/><text x="88" y="69.35" text-anchor="middle" font-family="Arial,sans-serif" font-size="21" font-weight="700" fill="#111">Mascot</text><rect x="168" y="8" width="500" height="54" fill="#f5f5f5" stroke="#222" stroke-width="2"/><text x="418" y="42.35" text-anchor="middle" font-family="Arial,sans-serif" font-size="21" font-weight="700" fill="#111">Grade level</text><rect x="168" y="62" width="125" height="54" fill="#f5f5f5" stroke="#222" stroke-width="2"/><text x="230.5" y="96.35" text-anchor="middle" font-family="Arial,sans-serif" font-size="21" font-weight="700" fill="#111">Sixth</text><rect x="293" y="62" width="125" height="54" fill="#f5f5f5" stroke="#222" stroke-width="2"/><text x="355.5" y="96.35" text-anchor="middle" font-family="Arial,sans-serif" font-size="21" font-weight="700" fill="#111">Seventh</text><rect x="418" y="62" width="125" height="54" fill="#f5f5f5" stroke="#222" stroke-width="2"/><text x="480.5" y="96.35" text-anchor="middle" font-family="Arial,sans-serif" font-size="21" font-weight="700" fill="#111">Eighth</text><rect x="543" y="62" width="125" height="54" fill="#f5f5f5" stroke="#222" stroke-width="2"/><text x="605.5" y="96.35" text-anchor="middle" font-family="Arial,sans-serif" font-size="21" font-weight="700" fill="#111">Total</text><rect x="8" y="116" width="160" height="54" fill="#f5f5f5" stroke="#222" stroke-width="2"/><text x="88" y="150.35" text-anchor="middle" font-family="Arial,sans-serif" font-size="21" font-weight="700" fill="#111">Badger</text><rect x="168" y="116" width="125" height="54" fill="white" stroke="#222" stroke-width="2"/><text x="230.5" y="150.35" text-anchor="middle" font-family="Arial,sans-serif" font-size="21" font-weight="400" fill="#111">4</text><rect x="293" y="116" width="125" height="54" fill="white" stroke="#222" stroke-width="2"/><text x="355.5" y="150.35" text-anchor="middle" font-family="Arial,sans-serif" font-size="21" font-weight="400" fill="#111">9</text><rect x="418" y="116" width="125" height="54" fill="white" stroke="#222" stroke-width="2"/><text x="480.5" y="150.35" text-anchor="middle" font-family="Arial,sans-serif" font-size="21" font-weight="400" fill="#111">9</text><rect x="543" y="116" width="125" height="54" fill="white" stroke="#222" stroke-width="2"/><text x="605.5" y="150.35" text-anchor="middle" font-family="Arial,sans-serif" font-size="21" font-weight="400" fill="#111">22</text><rect x="8" y="170" width="160" height="54" fill="#f5f5f5" stroke="#222" stroke-width="2"/><text x="88" y="204.35" text-anchor="middle" font-family="Arial,sans-serif" font-size="21" font-weight="700" fill="#111">Lion</text><rect x="168" y="170" width="125" height="54" fill="white" stroke="#222" stroke-width="2"/><text x="230.5" y="204.35" text-anchor="middle" font-family="Arial,sans-serif" font-size="21" font-weight="400" fill="#111">9</text><rect x="293" y="170" width="125" height="54" fill="white" stroke="#222" stroke-width="2"/><text x="355.5" y="204.35" text-anchor="middle" font-family="Arial,sans-serif" font-size="21" font-weight="400" fill="#111">2</text><rect x="418" y="170" width="125" height="54" fill="white" stroke="#222" stroke-width="2"/><text x="480.5" y="204.35" text-anchor="middle" font-family="Arial,sans-serif" font-size="21" font-weight="400" fill="#111">9</text><rect x="543" y="170" width="125" height="54" fill="white" stroke="#222" stroke-width="2"/><text x="605.5" y="204.35" text-anchor="middle" font-family="Arial,sans-serif" font-size="21" font-weight="400" fill="#111">20</text><rect x="8" y="224" width="160" height="54" fill="#f5f5f5" stroke="#222" stroke-width="2"/><text x="88" y="258.35" text-anchor="middle" font-family="Arial,sans-serif" font-size="21" font-weight="700" fill="#111">Longhorn</text><rect x="168" y="224" width="125" height="54" fill="white" stroke="#222" stroke-width="2"/><text x="230.5" y="258.35" text-anchor="middle" font-family="Arial,sans-serif" font-size="21" font-weight="400" fill="#111">4</text><rect x="293" y="224" width="125" height="54" fill="white" stroke="#222" stroke-width="2"/><text x="355.5" y="258.35" text-anchor="middle" font-family="Arial,sans-serif" font-size="21" font-weight="400" fill="#111">6</text><rect x="418" y="224" width="125" height="54" fill="white" stroke="#222" stroke-width="2"/><text x="480.5" y="258.35" text-anchor="middle" font-family="Arial,sans-serif" font-size="21" font-weight="400" fill="#111">4</text><rect x="543" y="224" width="125" height="54" fill="white" stroke="#222" stroke-width="2"/><text x="605.5" y="258.35" text-anchor="middle" font-family="Arial,sans-serif" font-size="21" font-weight="400" fill="#111">14</text><rect x="8" y="278" width="160" height="54" fill="#f5f5f5" stroke="#222" stroke-width="2"/><text x="88" y="312.35" text-anchor="middle" font-family="Arial,sans-serif" font-size="21" font-weight="700" fill="#111">Tiger</text><rect x="168" y="278" width="125" height="54" fill="white" stroke="#222" stroke-width="2"/><text x="230.5" y="312.35" text-anchor="middle" font-family="Arial,sans-serif" font-size="21" font-weight="400" fill="#111">6</text><rect x="293" y="278" width="125" height="54" fill="white" stroke="#222" stroke-width="2"/><text x="355.5" y="312.35" text-anchor="middle" font-family="Arial,sans-serif" font-size="21" font-weight="400" fill="#111">9</text><rect x="418" y="278" width="125" height="54" fill="white" stroke="#222" stroke-width="2"/><text x="480.5" y="312.35" text-anchor="middle" font-family="Arial,sans-serif" font-size="21" font-weight="400" fill="#111">9</text><rect x="543" y="278" width="125" height="54" fill="white" stroke="#222" stroke-width="2"/><text x="605.5" y="312.35" text-anchor="middle" font-family="Arial,sans-serif" font-size="21" font-weight="400" fill="#111">24</text><rect x="8" y="332" width="160" height="54" fill="#f5f5f5" stroke="#222" stroke-width="2"/><text x="88" y="366.35" text-anchor="middle" font-family="Arial,sans-serif" font-size="21" font-weight="700" fill="#111">Total</text><rect x="168" y="332" width="125" height="54" fill="white" stroke="#222" stroke-width="2"/><text x="230.5" y="366.35" text-anchor="middle" font-family="Arial,sans-serif" font-size="21" font-weight="400" fill="#111">23</text><rect x="293" y="332" width="125" height="54" fill="white" stroke="#222" stroke-width="2"/><text x="355.5" y="366.35" text-anchor="middle" font-family="Arial,sans-serif" font-size="21" font-weight="400" fill="#111">26</text><rect x="418" y="332" width="125" height="54" fill="white" stroke="#222" stroke-width="2"/><text x="480.5" y="366.35" text-anchor="middle" font-family="Arial,sans-serif" font-size="21" font-weight="400" fill="#111">31</text><rect x="543" y="332" width="125" height="54" fill="white" stroke="#222" stroke-width="2"/><text x="605.5" y="366.35" text-anchor="middle" font-family="Arial,sans-serif" font-size="21" font-weight="400" fill="#111">80</text></svg>