<svg xmlns="http://www.w3.org/2000/svg" width="396" height="556" viewBox="0 0 396 556"><rect width="100%" height="100%" fill="white"/><rect x="8" y="8" width="190" height="54" fill="#f5f5f5" stroke="#222" stroke-width="2"/><text x="103" y="42.35" text-anchor="middle" font-family="Arial,sans-serif" font-size="21" font-weight="700" fill="#111">Data value</text><rect x="198" y="8" width="190" height="54" fill="#f5f5f5" stroke="#222" stroke-width="2"/><text x="293" y="42.35" text-anchor="middle" font-family="Arial,sans-serif" font-size="21" font-weight="700" fill="#111">Frequency</text><rect x="8" y="62" width="190" height="54" fill="white" stroke="#222" stroke-width="2"/><text x="103" y="96.35" text-anchor="middle" font-family="Arial,sans-serif" font-size="21" font-weight="400" fill="#111">6</text><rect x="198" y="62" width="190" height="54" fill="white" stroke="#222" stroke-width="2"/><text x="293" y="96.35" text-anchor="middle" font-family="Arial,sans-serif" font-size="21" font-weight="400" fill="#111">3</text><rect x="8" y="116" width="190" height="54" fill="white" stroke="#222" stroke-width="2"/><text x="103" y="150.35" text-anchor="middle" font-family="Arial,sans-serif" font-size="21" font-weight="400" fill="#111">7</text><rect x="198" y="116" width="190" height="54" fill="white" stroke="#222" stroke-width="2"/><text x="293" y="150.35" text-anchor="middle" font-family="Arial,sans-serif" font-size="21" font-weight="400" fill="#111">3</text><rect x="8" y="170" width="190" height="54" fill="white" stroke="#222" stroke-width="2"/><text x="103" y="204.35" text-anchor="middle" font-family="Arial,sans-serif" font-size="21" font-weight="400" fill="#111">8</text><rect x="198" y="170" width="190" height="54" fill="white" stroke="#222" stroke-width="2"/><text x="293" y="204.35" text-anchor="middle" font-family="Arial,sans-serif" font-size="21" font-weight="400" fill="#111">8</text><rect x="8" y="224" width="190" height="54" fill="white" stroke="#222" stroke-width="2"/><text x="103" y="258.35" text-anchor="middle" font-family="Arial,sans-serif" font-size="21" font-weight="400" fill="#111">9</text><rect x="198" y="224" width="190" height="54" fill="white" stroke="#222" stroke-width="2"/><text x="293" y="258.35" text-anchor="middle" font-family="Arial,sans-serif" font-size="21" font-weight="400" fill="#111">8</text><rect x="8" y="278" width="190" height="54" fill="white" stroke="#222" stroke-width="2"/><text x="103" y="312.35" text-anchor="middle" font-family="Arial,sans-serif" font-size="21" font-weight="400" fill="#111">10</text><rect x="198" y="278" width="190" height="54" fill="white" stroke="#222" stroke-width="2"/><text x="293" y="312.35" text-anchor="middle" font-family="Arial,sans-serif" font-size="21" font-weight="400" fill="#111">9</text><rect x="8" y="332" width="190" height="54" fill="white" stroke="#222" stroke-width="2"/><text x="103" y="366.35" text-anchor="middle" font-family="Arial,sans-serif" font-size="21" font-weight="400" fill="#111">11</text><rect x="198" y="332" width="190" height="54" fill="white" stroke="#222" stroke-width="2"/><text x="293" y="366.35" text-anchor="middle" font-family="Arial,sans-serif" font-size="21" font-weight="400" fill="#111">11</text><rect x="8" y="386" width="190" height="54" fill="white" stroke="#222" stroke-width="2"/><text x="103" y="420.35" text-anchor="middle" font-family="Arial,sans-serif" font-size="21" font-weight="400" fill="#111">12</text><rect x="198" y="386" width="190" height="54" fill="white" stroke="#222" stroke-width="2"/><text x="293" y="420.35" text-anchor="middle" font-family="Arial,sans-serif" font-size="21" font-weight="400" fill="#111">9</text><rect x="8" y="440" width="190" height="54" fill="white" stroke="#222" stroke-width="2"/><text x="103" y="474.35" text-anchor="middle" font-family="Arial,sans-serif" font-size="21" font-weight="400" fill="#111">13</text><rect x="198" y="440" width="190" height="54" fill="white" stroke="#222" stroke-width="2"/><text x="293" y="474.35" text-anchor="middle" font-family="Arial,sans-serif" font-size="21" font-weight="400" fill="#111">0</text><rect x="8" y="494" width="190" height="54" fill="white" stroke="#222" stroke-width="2"/><text x="103" y="528.35" text-anchor="middle" font-family="Arial,sans-serif" font-size="21" font-weight="400" fill="#111">14</text><rect x="198" y="494" width="190" height="54" fill="white" stroke="#222" stroke-width="2"/><text x="293" y="528.35" text-anchor="middle" font-family="Arial,sans-serif" font-size="21" font-weight="400" fill="#111">6</text></svg>