<svg xmlns="http://www.w3.org/2000/svg" width="386" height="296" viewBox="0 0 386 296"><rect width="100%" height="100%" fill="white"/><rect x="8" y="8" width="170" height="56" fill="#f5f5f5" stroke="#222" stroke-width="2"/><text x="93" y="43" text-anchor="middle" font-family="Arial,sans-serif" font-size="20" font-weight="700">x</text><rect x="178" y="8" width="200" height="56" fill="#f5f5f5" stroke="#222" stroke-width="2"/><text x="278" y="43" text-anchor="middle" font-family="Arial,sans-serif" font-size="20" font-weight="700">g ( x )</text><rect x="8" y="64" width="170" height="56" fill="white" stroke="#222" stroke-width="2"/><text x="93" y="99" text-anchor="middle" font-family="Arial,sans-serif" font-size="20" font-weight="400">1</text><rect x="178" y="64" width="200" height="56" fill="white" stroke="#222" stroke-width="2"/><text x="278" y="99" text-anchor="middle" font-family="Arial,sans-serif" font-size="20" font-weight="400">32</text><rect x="8" y="120" width="170" height="56" fill="white" stroke="#222" stroke-width="2"/><text x="93" y="155" text-anchor="middle" font-family="Arial,sans-serif" font-size="20" font-weight="400">2</text><rect x="178" y="120" width="200" height="56" fill="white" stroke="#222" stroke-width="2"/><text x="278" y="155" text-anchor="middle" font-family="Arial,sans-serif" font-size="20" font-weight="400">28</text><rect x="8" y="176" width="170" height="56" fill="white" stroke="#222" stroke-width="2"/><text x="93" y="211" text-anchor="middle" font-family="Arial,sans-serif" font-size="20" font-weight="400">3</text><rect x="178" y="176" width="200" height="56" fill="white" stroke="#222" stroke-width="2"/><text x="278" y="211" text-anchor="middle" font-family="Arial,sans-serif" font-size="20" font-weight="400">24</text><rect x="8" y="232" width="170" height="56" fill="white" stroke="#222" stroke-width="2"/><text x="93" y="267" text-anchor="middle" font-family="Arial,sans-serif" font-size="20" font-weight="400">4</text><rect x="178" y="232" width="200" height="56" fill="white" stroke="#222" stroke-width="2"/><text x="278" y="267" text-anchor="middle" font-family="Arial,sans-serif" font-size="20" font-weight="400">20</text></svg>