<svg height="275.22pt" version="1.1" viewBox="0 0 287.764248 275.22" width="287.764248pt" xmlns="http://www.w3.org/2000/svg" xmlns:xlink="http://www.w3.org/1999/xlink" role="img" aria-label="Graph of a curve in the x y plane with the origin labeled O. The x axis ranges from negative 6 to 3 in increments of 1, with values marked every 2 grid lines. The y axis ranges from negative 2 to 6 in increments of 1, with values marked every 2 grid lines. Refer to long description.">
 <defs>
  <style type="text/css">
*{stroke-linecap:butt;stroke-linejoin:round;}
  </style>
 </defs>
 <g id="figure_1">
  <g id="patch_1">
   <path d="M -0 275.22 
L 287.764248 275.22 
L 287.764248 0 
L -0 0 
z
" style="fill:none;"></path>
  </g>
  <g id="axes_1">
   <g id="patch_2">
    <path d="M 8.404248 260.46 
L 280.564248 260.46 
L 280.564248 10.98 
L 8.404248 10.98 
z
" style="fill:none;"></path>
   </g>
   <g id="matplotlib.axis_1"></g>
   <g id="matplotlib.axis_2"></g>
  </g>
  <g id="axes_2">
   <g id="patch_3">
    <path d="M 7.2 268.02 
L 276.098496 268.02 
L 276.098496 7.2 
L 7.2 7.2 
z
" style="fill:none;"></path>
   </g>
   <g id="matplotlib.axis_3">
    <g id="xtick_1"></g>
    <g id="xtick_2"></g>
    <g id="xtick_3"></g>
    <g id="xtick_4"></g>
    <g id="xtick_5"></g>
    <g id="xtick_6"></g>
    <g id="xtick_7"></g>
    <g id="xtick_8"></g>
    <g id="xtick_9"></g>
   </g>
   <g id="matplotlib.axis_4">
    <g id="ytick_1"></g>
    <g id="ytick_2"></g>
    <g id="ytick_3"></g>
    <g id="ytick_4"></g>
    <g id="ytick_5"></g>
    <g id="ytick_6"></g>
    <g id="ytick_7"></g>
    <g id="ytick_8"></g>
   </g>
   <g id="LineCollection_1">
    <path clip-path="url(#p0d6c2b243f)" d="M 37.782876 255.11539 
L 37.782876 34.792784 
" style="fill:none;stroke:#000000;stroke-width:0.708982;"></path>
    <path clip-path="url(#p0d6c2b243f)" d="M 61.097438 255.11539 
L 61.097438 34.792784 
" style="fill:none;stroke:#000000;stroke-width:0.708982;"></path>
    <path clip-path="url(#p0d6c2b243f)" d="M 84.411999 255.11539 
L 84.411999 34.792784 
" style="fill:none;stroke:#000000;stroke-width:0.708982;"></path>
    <path clip-path="url(#p0d6c2b243f)" d="M 107.726561 255.11539 
L 107.726561 34.792784 
" style="fill:none;stroke:#000000;stroke-width:0.708982;"></path>
    <path clip-path="url(#p0d6c2b243f)" d="M 131.041122 255.11539 
L 131.041122 34.792784 
" style="fill:none;stroke:#000000;stroke-width:0.708982;"></path>
    <path clip-path="url(#p0d6c2b243f)" d="M 154.355684 255.11539 
L 154.355684 34.792784 
" style="fill:none;stroke:#000000;stroke-width:0.708982;"></path>
    <path clip-path="url(#p0d6c2b243f)" d="M 200.984807 255.11539 
L 200.984807 34.792784 
" style="fill:none;stroke:#000000;stroke-width:0.708982;"></path>
    <path clip-path="url(#p0d6c2b243f)" d="M 224.299368 255.11539 
L 224.299368 34.792784 
" style="fill:none;stroke:#000000;stroke-width:0.708982;"></path>
    <path clip-path="url(#p0d6c2b243f)" d="M 247.61393 255.11539 
L 247.61393 34.792784 
" style="fill:none;stroke:#000000;stroke-width:0.708982;"></path>
    <path clip-path="url(#p0d6c2b243f)" d="M 32.5371 249.869614 
L 252.859706 249.869614 
" style="fill:none;stroke:#000000;stroke-width:0.708982;"></path>
    <path clip-path="url(#p0d6c2b243f)" d="M 32.5371 223.640732 
L 252.859706 223.640732 
" style="fill:none;stroke:#000000;stroke-width:0.708982;"></path>
    <path clip-path="url(#p0d6c2b243f)" d="M 32.5371 171.182969 
L 252.859706 171.182969 
" style="fill:none;stroke:#000000;stroke-width:0.708982;"></path>
    <path clip-path="url(#p0d6c2b243f)" d="M 32.5371 144.954087 
L 252.859706 144.954087 
" style="fill:none;stroke:#000000;stroke-width:0.708982;"></path>
    <path clip-path="url(#p0d6c2b243f)" d="M 32.5371 118.725205 
L 252.859706 118.725205 
" style="fill:none;stroke:#000000;stroke-width:0.708982;"></path>
    <path clip-path="url(#p0d6c2b243f)" d="M 32.5371 92.496323 
L 252.859706 92.496323 
" style="fill:none;stroke:#000000;stroke-width:0.708982;"></path>
    <path clip-path="url(#p0d6c2b243f)" d="M 32.5371 66.267442 
L 252.859706 66.267442 
" style="fill:none;stroke:#000000;stroke-width:0.708982;"></path>
    <path clip-path="url(#p0d6c2b243f)" d="M 32.5371 40.03856 
L 252.859706 40.03856 
" style="fill:none;stroke:#000000;stroke-width:0.708982;"></path>
   </g>
   <g id="LineCollection_2">
    <path clip-path="url(#p0d6c2b243f)" d="M 32.5371 197.41185 
L 258.105483 197.41185 
" style="fill:none;stroke:#000000;stroke-width:1.949699;"></path>
   </g>
   <g id="PathCollection_1">
    <defs>
     <path d="M 255.26462 -76.823699 
L 258.105483 -77.80815 
L 255.26462 -78.7926 
L 255.26462 -76.823699 
L 258.105483 -77.80815 
" id="m867c780aad" style="stroke:#000000;stroke-linejoin:miter;stroke-width:1.949699;"></path>
    </defs>
    <g clip-path="url(#p0d6c2b243f)">
     <use style="stroke:#000000;stroke-linejoin:miter;stroke-width:1.949699;" x="0" xlink:href="#m867c780aad" y="275.22"></use>
    </g>
   </g>
   <g id="LineCollection_3">
    <path clip-path="url(#p0d6c2b243f)" d="M 177.670245 255.11539 
L 177.670245 29.547007 
" style="fill:none;stroke:#000000;stroke-width:1.949699;"></path>
   </g>
   <g id="PathCollection_2">
    <defs>
     <path d="M 178.676153 -242.098754 
L 177.670245 -245.672993 
L 176.664338 -242.098754 
L 178.676153 -242.098754 
L 177.670245 -245.672993 
" id="m84227ff198" style="stroke:#000000;stroke-linejoin:miter;stroke-width:1.949699;"></path>
    </defs>
    <g clip-path="url(#p0d6c2b243f)">
     <use style="stroke:#000000;stroke-linejoin:miter;stroke-width:1.949699;" x="0" xlink:href="#m84227ff198" y="275.22"></use>
    </g>
   </g>
   <g id="LineCollection_4">
    <path clip-path="url(#p0d6c2b243f)" d="M 37.782876 201.277159 
L 37.782876 193.546541 
" style="fill:none;stroke:#000000;stroke-width:0.886227;"></path>
    <path clip-path="url(#p0d6c2b243f)" d="M 61.097438 201.277159 
L 61.097438 193.546541 
" style="fill:none;stroke:#000000;stroke-width:0.886227;"></path>
    <path clip-path="url(#p0d6c2b243f)" d="M 84.411999 201.277159 
L 84.411999 193.546541 
" style="fill:none;stroke:#000000;stroke-width:0.886227;"></path>
    <path clip-path="url(#p0d6c2b243f)" d="M 107.726561 201.277159 
L 107.726561 193.546541 
" style="fill:none;stroke:#000000;stroke-width:0.886227;"></path>
    <path clip-path="url(#p0d6c2b243f)" d="M 131.041122 201.277159 
L 131.041122 193.546541 
" style="fill:none;stroke:#000000;stroke-width:0.886227;"></path>
    <path clip-path="url(#p0d6c2b243f)" d="M 154.355684 201.277159 
L 154.355684 193.546541 
" style="fill:none;stroke:#000000;stroke-width:0.886227;"></path>
    <path clip-path="url(#p0d6c2b243f)" d="M 200.984807 201.277159 
L 200.984807 193.546541 
" style="fill:none;stroke:#000000;stroke-width:0.886227;"></path>
    <path clip-path="url(#p0d6c2b243f)" d="M 224.299368 201.277159 
L 224.299368 193.546541 
" style="fill:none;stroke:#000000;stroke-width:0.886227;"></path>
    <path clip-path="url(#p0d6c2b243f)" d="M 247.61393 201.277159 
L 247.61393 193.546541 
" style="fill:none;stroke:#000000;stroke-width:0.886227;"></path>
   </g>
   <g id="LineCollection_5">
    <path clip-path="url(#p0d6c2b243f)" d="M 173.804936 249.869614 
L 181.535554 249.869614 
" style="fill:none;stroke:#000000;stroke-width:0.886227;"></path>
    <path clip-path="url(#p0d6c2b243f)" d="M 173.804936 223.640732 
L 181.535554 223.640732 
" style="fill:none;stroke:#000000;stroke-width:0.886227;"></path>
    <path clip-path="url(#p0d6c2b243f)" d="M 173.804936 171.182969 
L 181.535554 171.182969 
" style="fill:none;stroke:#000000;stroke-width:0.886227;"></path>
    <path clip-path="url(#p0d6c2b243f)" d="M 173.804936 144.954087 
L 181.535554 144.954087 
" style="fill:none;stroke:#000000;stroke-width:0.886227;"></path>
    <path clip-path="url(#p0d6c2b243f)" d="M 173.804936 118.725205 
L 181.535554 118.725205 
" style="fill:none;stroke:#000000;stroke-width:0.886227;"></path>
    <path clip-path="url(#p0d6c2b243f)" d="M 173.804936 92.496323 
L 181.535554 92.496323 
" style="fill:none;stroke:#000000;stroke-width:0.886227;"></path>
    <path clip-path="url(#p0d6c2b243f)" d="M 173.804936 66.267442 
L 181.535554 66.267442 
" style="fill:none;stroke:#000000;stroke-width:0.886227;"></path>
    <path clip-path="url(#p0d6c2b243f)" d="M 173.804936 40.03856 
L 181.535554 40.03856 
" style="fill:none;stroke:#000000;stroke-width:0.886227;"></path>
   </g>
   <g id="PolyCollection_1">
    <path clip-path="url(#p0d6c2b243f)" d="M 162.719783 256.164545 
L 162.719783 244.623837 
L 170.588447 244.623837 
L 170.588447 256.164545 
z
" style="fill:#ffffff;"></path>
   </g>
   <g id="PolyCollection_2">
    <path clip-path="url(#p0d6c2b243f)" d="M 154.588829 249.082747 
L 154.588829 253.541657 
L 165.080382 253.541657 
L 165.080382 249.082747 
z
" style="fill:#ffffff;"></path>
   </g>
   <g id="text_1">
    <g clip-path="url(#p0d6c2b243f)">
     <!-- – -->
     <defs>
      <path d="M 2.734375 20.40625 
Q 2.734375 21.390625 3.078125 23.484375 
Q 3.421875 25.59375 4.109375 25.59375 
L 45.609375 25.59375 
Q 46.1875 25.59375 46.1875 24.703125 
Q 46.1875 23.734375 45.3125 20.21875 
Q 45.21875 19.921875 45.0625 19.765625 
Q 44.921875 19.625 44.734375 19.53125 
L 44.625 19.53125 
L 3.328125 19.53125 
Q 3.328125 19.53125 2.9375 19.734375 
Q 2.734375 20.015625 2.734375 20.40625 
z
" id="CrimsonText-Regular-8211"></path>
     </defs>
     <g transform="translate(155.409627 254.608792)scale(0.15 -0.15)">
      <use xlink:href="#CrimsonText-Regular-8211"></use>
     </g>
    </g>
   </g>
   <g id="text_2">
    <g clip-path="url(#p0d6c2b243f)">
     <!-- 2 -->
     <defs>
      <path d="M 25 62.703125 
Q 31.546875 62.703125 35.296875 57.8125 
Q 39.0625 52.9375 39.0625 46.78125 
Q 39.0625 43.171875 37.84375 39.3125 
Q 36.625 35.453125 34.03125 31.4375 
Q 31.453125 27.4375 29.34375 24.453125 
Q 27.25 21.484375 23.53125 17.578125 
Q 19.828125 13.671875 18.40625 12.203125 
Q 17 10.75 13.875 7.71875 
Q 13.578125 7.234375 14.0625 7.03125 
L 32.90625 7.03125 
Q 35.640625 7.03125 36.859375 8.59375 
Q 38.09375 10.15625 39.359375 14.546875 
Q 39.75 15.625 40.71875 15.625 
Q 42 15.625 42.484375 15.234375 
Q 40.140625 3.515625 39.84375 1.5625 
Q 39.65625 0 37.890625 0 
L 5.859375 0 
Q 5.46875 0 5.125 1.125 
Q 4.78125 2.25 4.78125 2.9375 
Q 15.4375 13.671875 23.046875 25.234375 
Q 30.671875 36.8125 30.671875 44.828125 
Q 30.671875 50.09375 28.03125 52.96875 
Q 25.390625 55.859375 21.09375 55.859375 
Q 12.984375 55.859375 8.109375 47.75 
Q 7.515625 47.75 6.875 48.390625 
Q 6.25 49.03125 6.25 49.3125 
Q 6.546875 50.484375 7.859375 52.484375 
Q 9.1875 54.5 11.375 56.890625 
Q 13.578125 59.28125 17.234375 60.984375 
Q 20.90625 62.703125 25 62.703125 
z
" id="CrimsonText-Regular-50"></path>
     </defs>
     <g transform="translate(163.236315 254.608792)scale(0.15 -0.15)">
      <use xlink:href="#CrimsonText-Regular-50"></use>
     </g>
    </g>
   </g>
   <g id="text_3">
    <g clip-path="url(#p0d6c2b243f)">
     <!-- 2 -->
     <g transform="translate(163.236315 254.608792)scale(0.15 -0.15)">
      <use xlink:href="#CrimsonText-Regular-50"></use>
     </g>
    </g>
   </g>
   <g id="PolyCollection_3">
    <path clip-path="url(#p0d6c2b243f)" d="M 162.719783 151.249019 
L 162.719783 139.708311 
L 170.588447 139.708311 
L 170.588447 151.249019 
z
" style="fill:#ffffff;"></path>
   </g>
   <g id="text_4">
    <g clip-path="url(#p0d6c2b243f)">
     <!-- 2 -->
     <g transform="translate(163.236315 149.693265)scale(0.15 -0.15)">
      <use xlink:href="#CrimsonText-Regular-50"></use>
     </g>
    </g>
   </g>
   <g id="text_5">
    <g clip-path="url(#p0d6c2b243f)">
     <!-- 2 -->
     <g transform="translate(163.236315 149.693265)scale(0.15 -0.15)">
      <use xlink:href="#CrimsonText-Regular-50"></use>
     </g>
    </g>
   </g>
   <g id="PolyCollection_4">
    <path clip-path="url(#p0d6c2b243f)" d="M 162.719783 98.791255 
L 162.719783 87.250547 
L 170.588447 87.250547 
L 170.588447 98.791255 
z
" style="fill:#ffffff;"></path>
   </g>
   <g id="text_6">
    <g clip-path="url(#p0d6c2b243f)">
     <!-- 4 -->
     <defs>
      <path d="M 35.0625 62.984375 
Q 36.328125 62.984375 36.328125 62.015625 
L 36.328125 22.65625 
L 42.390625 22.65625 
Q 43.953125 22.65625 43.953125 17.96875 
Q 43.953125 17.390625 43.359375 17 
Q 43.359375 17 36.328125 17 
L 36.328125 -0.09375 
Q 36.03125 -0.59375 32.234375 -0.59375 
Q 28.609375 -0.59375 28.609375 0.203125 
L 28.609375 17 
L 3.90625 17 
Q 3.21875 17.875 3.21875 20.015625 
L 32.8125 61.8125 
Q 33.6875 62.984375 35.0625 62.984375 
z
M 28.609375 22.65625 
L 28.609375 48.640625 
Q 28.609375 49.515625 28.125 49.515625 
Q 28.125 49.421875 28.03125 49.3125 
L 10.25 23.828125 
Q 10.15625 23.734375 10.15625 23.53125 
Q 10.15625 22.65625 10.84375 22.65625 
z
" id="CrimsonText-Regular-52"></path>
     </defs>
     <g transform="translate(163.26444 97.235502)scale(0.15 -0.15)">
      <use xlink:href="#CrimsonText-Regular-52"></use>
     </g>
    </g>
   </g>
   <g id="text_7">
    <g clip-path="url(#p0d6c2b243f)">
     <!-- 4 -->
     <g transform="translate(163.26444 97.235502)scale(0.15 -0.15)">
      <use xlink:href="#CrimsonText-Regular-52"></use>
     </g>
    </g>
   </g>
   <g id="PolyCollection_5">
    <path clip-path="url(#p0d6c2b243f)" d="M 162.719783 46.333492 
L 162.719783 34.792784 
L 170.588447 34.792784 
L 170.588447 46.333492 
z
" style="fill:#ffffff;"></path>
   </g>
   <g id="text_8">
    <g clip-path="url(#p0d6c2b243f)">
     <!-- 6 -->
     <defs>
      <path d="M 12.703125 20.515625 
Q 12.703125 13.671875 15.96875 8.4375 
Q 19.234375 3.21875 24.125 3.21875 
Q 28.421875 3.21875 31.640625 6.984375 
Q 34.859375 10.75 34.859375 17 
Q 34.859375 23.640625 31.6875 27.9375 
Q 28.515625 32.234375 22.359375 32.234375 
Q 19.734375 32.234375 17.28125 30.8125 
Q 14.84375 29.390625 14.15625 27.828125 
Q 12.796875 24.703125 12.703125 20.515625 
z
M 22.953125 -0.59375 
Q 14.84375 -0.59375 9.5625 5.703125 
Q 4.296875 12.015625 4.296875 20.3125 
Q 4.296875 27.9375 7.328125 34.96875 
Q 10.359375 42 15.484375 47.3125 
Q 20.609375 52.640625 26.515625 56.59375 
Q 32.421875 60.546875 39.0625 63.1875 
Q 39.65625 63.1875 40.484375 62.109375 
Q 41.3125 61.03125 41.3125 60.546875 
Q 31.453125 56.25 24.5625 50.140625 
Q 17.671875 44.046875 15.046875 34.375 
Q 14.84375 33.40625 15.140625 33.40625 
Q 15.328125 33.5 15.4375 33.59375 
Q 16.796875 34.671875 20.359375 35.9375 
Q 23.921875 37.203125 26.859375 37.203125 
Q 33.6875 37.203125 38.328125 31.484375 
Q 42.96875 25.78125 42.96875 19.046875 
Q 42.96875 10.9375 36.90625 5.171875 
Q 30.859375 -0.59375 22.953125 -0.59375 
z
" id="CrimsonText-Regular-54"></path>
     </defs>
     <g transform="translate(163.236315 44.777738)scale(0.15 -0.15)">
      <use xlink:href="#CrimsonText-Regular-54"></use>
     </g>
    </g>
   </g>
   <g id="text_9">
    <g clip-path="url(#p0d6c2b243f)">
     <!-- 6 -->
     <g transform="translate(163.236315 44.777738)scale(0.15 -0.15)">
      <use xlink:href="#CrimsonText-Regular-54"></use>
     </g>
    </g>
   </g>
   <g id="PolyCollection_6">
    <path clip-path="url(#p0d6c2b243f)" d="M 19.422659 205.805093 
L 19.422659 210.001714 
L 126.319924 210.001714 
L 126.319924 205.805093 
z
" style="fill:#ffffff;"></path>
   </g>
   <g id="PolyCollection_7">
    <path clip-path="url(#p0d6c2b243f)" d="M 33.061677 212.624602 
L 33.061677 201.083894 
L 40.930342 201.083894 
L 40.930342 212.624602 
z
" style="fill:#ffffff;"></path>
   </g>
   <g id="text_10">
    <g clip-path="url(#p0d6c2b243f)">
     <!-- – -->
     <g transform="translate(26.01381 211.331137)scale(0.15 -0.15)">
      <use xlink:href="#CrimsonText-Regular-8211"></use>
     </g>
    </g>
   </g>
   <g id="text_11">
    <g clip-path="url(#p0d6c2b243f)">
     <!-- 6 -->
     <g transform="translate(33.315921 211.331137)scale(0.15 -0.15)">
      <use xlink:href="#CrimsonText-Regular-54"></use>
     </g>
    </g>
   </g>
   <g id="text_12">
    <g clip-path="url(#p0d6c2b243f)">
     <!-- 6 -->
     <g transform="translate(33.315921 211.331137)scale(0.15 -0.15)">
      <use xlink:href="#CrimsonText-Regular-54"></use>
     </g>
    </g>
   </g>
   <g id="PolyCollection_8">
    <path clip-path="url(#p0d6c2b243f)" d="M 79.6908 212.624602 
L 79.6908 201.083894 
L 87.559465 201.083894 
L 87.559465 212.624602 
z
" style="fill:#ffffff;"></path>
   </g>
   <g id="text_13">
    <g clip-path="url(#p0d6c2b243f)">
     <!-- – -->
     <g transform="translate(72.642933 211.331137)scale(0.15 -0.15)">
      <use xlink:href="#CrimsonText-Regular-8211"></use>
     </g>
    </g>
   </g>
   <g id="text_14">
    <g clip-path="url(#p0d6c2b243f)">
     <!-- 4 -->
     <g transform="translate(79.973169 211.331137)scale(0.15 -0.15)">
      <use xlink:href="#CrimsonText-Regular-52"></use>
     </g>
    </g>
   </g>
   <g id="text_15">
    <g clip-path="url(#p0d6c2b243f)">
     <!-- 4 -->
     <g transform="translate(79.973169 211.331137)scale(0.15 -0.15)">
      <use xlink:href="#CrimsonText-Regular-52"></use>
     </g>
    </g>
   </g>
   <g id="PolyCollection_9">
    <path clip-path="url(#p0d6c2b243f)" d="M 126.319924 212.624602 
L 126.319924 201.083894 
L 134.188588 201.083894 
L 134.188588 212.624602 
z
" style="fill:#ffffff;"></path>
   </g>
   <g id="text_16">
    <g clip-path="url(#p0d6c2b243f)">
     <!-- – -->
     <g transform="translate(119.272056 211.331137)scale(0.15 -0.15)">
      <use xlink:href="#CrimsonText-Regular-8211"></use>
     </g>
    </g>
   </g>
   <g id="text_17">
    <g clip-path="url(#p0d6c2b243f)">
     <!-- 2 -->
     <g transform="translate(126.574167 211.331137)scale(0.15 -0.15)">
      <use xlink:href="#CrimsonText-Regular-50"></use>
     </g>
    </g>
   </g>
   <g id="text_18">
    <g clip-path="url(#p0d6c2b243f)">
     <!-- 2 -->
     <g transform="translate(126.574167 211.331137)scale(0.15 -0.15)">
      <use xlink:href="#CrimsonText-Regular-50"></use>
     </g>
    </g>
   </g>
   <g id="PolyCollection_10">
    <path clip-path="url(#p0d6c2b243f)" d="M 219.57817 212.624602 
L 219.57817 201.083894 
L 227.446834 201.083894 
L 227.446834 212.624602 
z
" style="fill:#ffffff;"></path>
   </g>
   <g id="text_19">
    <g clip-path="url(#p0d6c2b243f)">
     <!-- 2 -->
     <g transform="translate(219.832413 211.331137)scale(0.15 -0.15)">
      <use xlink:href="#CrimsonText-Regular-50"></use>
     </g>
    </g>
   </g>
   <g id="text_20">
    <g clip-path="url(#p0d6c2b243f)">
     <!-- 2 -->
     <g transform="translate(219.832413 211.331137)scale(0.15 -0.15)">
      <use xlink:href="#CrimsonText-Regular-50"></use>
     </g>
    </g>
   </g>
   <g id="text_21">
    <g clip-path="url(#p0d6c2b243f)">
     <!-- O -->
     <defs>
      <path d="M 39.9375 61.03125 
Q 29.390625 61.03125 22.0625 50.140625 
Q 14.75 39.265625 14.75 26.078125 
Q 14.75 16.109375 19.09375 9.65625 
Q 23.4375 3.21875 31.453125 3.21875 
Q 41.609375 3.21875 49.03125 14.296875 
Q 56.453125 25.390625 56.453125 38.578125 
Q 56.453125 48.34375 52.15625 54.6875 
Q 47.859375 61.03125 39.9375 61.03125 
z
M 42.1875 65.140625 
Q 52.046875 65.140625 58.734375 57.765625 
Q 65.4375 50.390625 65.4375 39.9375 
Q 65.4375 29.390625 60.40625 19.921875 
Q 55.375 10.453125 46.875 4.734375 
Q 38.375 -0.984375 28.90625 -0.984375 
Q 18.453125 -0.984375 12.15625 6.484375 
Q 5.859375 13.96875 5.859375 25.296875 
Q 5.859375 35.453125 11.234375 44.78125 
Q 16.609375 54.109375 25 59.625 
Q 33.40625 65.140625 42.1875 65.140625 
z
" id="CrimsonText-Italic-79"></path>
     </defs>
     <g transform="translate(166.018135 207.788961)scale(0.15 -0.15)">
      <use xlink:href="#CrimsonText-Italic-79"></use>
     </g>
    </g>
   </g>
   <g id="text_22">
    <g clip-path="url(#p0d6c2b243f)">
     <!-- y -->
     <defs>
      <path d="M 21.09375 42.484375 
Q 24.03125 42.484375 25.921875 37.5 
Q 27.828125 32.515625 28.515625 24.453125 
Q 29.203125 16.40625 29.390625 11.859375 
Q 29.59375 7.328125 29.59375 2.734375 
Q 33.40625 7.421875 37.203125 14.6875 
Q 41.015625 21.96875 41.015625 27.828125 
Q 41.015625 33.59375 38.578125 38.28125 
Q 39.84375 42.484375 43.453125 42.484375 
Q 47.75 42.484375 47.75 34.765625 
Q 47.75 24.03125 39.34375 10.109375 
Q 30.953125 -3.8125 20.359375 -13.28125 
Q 9.765625 -22.75 3.21875 -22.75 
Q 0.6875 -22.75 -0.96875 -21.578125 
Q -2.640625 -20.40625 -2.640625 -18.75 
Q -2.640625 -15.625 -0.390625 -14.453125 
Q 1.765625 -15.71875 6.15625 -15.71875 
Q 14.265625 -15.71875 20.21875 -7.03125 
Q 22.46875 -3.71875 22.46875 6.0625 
Q 22.46875 10.84375 22.21875 15.578125 
Q 21.96875 20.3125 21.328125 25.296875 
Q 20.703125 30.28125 19.484375 33.34375 
Q 18.265625 36.421875 16.609375 36.421875 
Q 15.71875 36.421875 13.953125 34.765625 
Q 12.203125 33.109375 11.234375 31.84375 
Q 11.03125 31.84375 10.5 32.765625 
Q 9.96875 33.6875 9.96875 34.078125 
Q 10.546875 35.546875 14.59375 39.015625 
Q 18.65625 42.484375 21.09375 42.484375 
z
" id="CrimsonText-Italic-121"></path>
     </defs>
     <g transform="translate(174.161652 22.350767)scale(0.15 -0.15)">
      <use xlink:href="#CrimsonText-Italic-121"></use>
     </g>
    </g>
   </g>
   <g id="text_23">
    <g clip-path="url(#p0d6c2b243f)">
     <!-- x -->
     <defs>
      <path d="M 20.3125 42.484375 
Q 24.421875 42.484375 26.953125 33.984375 
L 29 27.046875 
L 34.765625 36.921875 
Q 37.984375 42.484375 42.96875 42.484375 
Q 46.296875 42.484375 48.640625 40.53125 
Q 49.421875 38.96875 49.421875 37.984375 
Q 49.421875 36.53125 48.390625 35.5 
Q 47.359375 34.46875 46.296875 34.46875 
Q 45.015625 34.46875 43.40625 35.984375 
Q 41.796875 37.5 40.4375 37.5 
Q 39.265625 37.5 37.796875 34.96875 
L 30.46875 22.46875 
L 34.671875 8.6875 
Q 35.640625 5.375 37.3125 5.375 
Q 38.765625 5.375 40.421875 6.890625 
Q 42.09375 8.40625 42.78125 9.671875 
Q 43.171875 9.671875 43.75 8.890625 
Q 44.34375 8.109375 44.34375 7.71875 
Q 44.046875 6.0625 40.71875 2.78125 
Q 37.40625 -0.484375 34.375 -0.484375 
Q 30.28125 -0.484375 27.734375 8.015625 
L 25.484375 15.625 
L 19.34375 4.984375 
Q 16.109375 -0.59375 11.140625 -0.59375 
Q 7.8125 -0.59375 5.46875 1.375 
Q 4.6875 2.734375 4.6875 3.90625 
Q 4.6875 5.375 5.703125 6.390625 
Q 6.734375 7.421875 7.8125 7.421875 
Q 9.078125 7.421875 10.6875 5.90625 
Q 12.3125 4.390625 13.671875 4.390625 
Q 14.84375 4.390625 16.3125 6.9375 
L 24.03125 20.21875 
L 20.015625 33.296875 
Q 19.046875 36.625 17.390625 36.625 
Q 15.921875 36.625 14.25 35.109375 
Q 12.59375 33.59375 11.921875 32.328125 
Q 11.53125 32.328125 10.9375 33.109375 
Q 10.359375 33.890625 10.359375 34.28125 
Q 10.640625 35.9375 13.953125 39.203125 
Q 17.28125 42.484375 20.3125 42.484375 
z
" id="CrimsonText-Italic-120"></path>
     </defs>
     <g transform="translate(260.389509 200.707163)scale(0.15 -0.15)">
      <use xlink:href="#CrimsonText-Italic-120"></use>
     </g>
    </g>
   </g>
   <g id="line2d_1">
    <path clip-path="url(#p0d6c2b243f)" d="M 37.782876 197.410667 
L 101.699349 197.297374 
L 117.257965 197.063474 
L 126.929536 196.716025 
L 134.078089 196.251544 
L 139.54463 195.696342 
L 144.170164 195.023562 
L 148.375195 194.185454 
L 151.73922 193.307708 
L 155.103245 192.191169 
L 158.046767 190.967653 
L 160.569785 189.693093 
L 163.092804 188.166446 
L 165.19532 186.665985 
L 167.297835 184.922011 
L 169.400351 182.895003 
L 171.502866 180.539027 
L 173.605382 177.800693 
L 175.707898 174.617948 
L 177.38991 171.703687 
L 179.071922 168.41683 
L 180.753935 164.70974 
L 182.435947 160.528688 
L 184.11796 155.813078 
L 185.799972 150.494564 
L 187.481985 144.496064 
L 189.163997 137.730641 
L 190.84601 130.100239 
L 192.528022 121.494271 
L 194.210035 111.788006 
L 195.892047 100.84077 
L 197.574059 88.493901 
L 199.256072 74.568452 
L 200.938084 58.862597 
L 202.620097 41.148707 
L 203.0406 36.377083 
L 203.0406 36.377083 
" style="fill:none;stroke:#000000;stroke-linecap:square;stroke-width:2.3;"></path>
   </g>
  </g>
 </g>
 <defs>
  <clipPath id="p0d6c2b243f">
   <rect height="260.82" width="268.898496" x="7.2" y="7.2"></rect>
  </clipPath>
 </defs>
</svg>