<svg xmlns="http://www.w3.org/2000/svg" width="786" height="328" viewBox="0 0 786 328"><rect width="100%" height="100%" fill="white"/><text x="393" y="30" text-anchor="middle" font-family="Arial,sans-serif" font-size="22" font-weight="700">Fiber Characteristics of Mouflon, Navajo-Churro, and Spanish</text><text x="393" y="56" text-anchor="middle" font-family="Arial,sans-serif" font-size="22" font-weight="700">Merino Sheep</text><rect x="8" y="78" width="210" height="74" fill="#f5f5f5" stroke="#222" stroke-width="2"/><text x="113" y="122" text-anchor="middle" font-family="Arial,sans-serif" font-size="20" font-weight="700">Type of sheep</text><rect x="218" y="78" width="280" height="74" fill="#f5f5f5" stroke="#222" stroke-width="2"/><text x="358" y="109" text-anchor="middle" font-family="Arial,sans-serif" font-size="20" font-weight="700">Diameter of outer coat</text><text x="358" y="135" text-anchor="middle" font-family="Arial,sans-serif" font-size="20" font-weight="700">fibers (in microns)</text><rect x="498" y="78" width="280" height="74" fill="#f5f5f5" stroke="#222" stroke-width="2"/><text x="638" y="109" text-anchor="middle" font-family="Arial,sans-serif" font-size="20" font-weight="700">Diameter of inner coat</text><text x="638" y="135" text-anchor="middle" font-family="Arial,sans-serif" font-size="20" font-weight="700">fibers (in microns)</text><rect x="8" y="152" width="210" height="56" fill="#f5f5f5" stroke="#222" stroke-width="2"/><text x="113" y="187" text-anchor="middle" font-family="Arial,sans-serif" font-size="20" font-weight="700">Spanish Merino</text><rect x="218" y="152" width="280" height="56" fill="white" stroke="#222" stroke-width="2"/><text x="358" y="187" text-anchor="middle" font-family="Arial,sans-serif" font-size="20" font-weight="400">19–24</text><rect x="498" y="152" width="280" height="56" fill="white" stroke="#222" stroke-width="2"/><text x="638" y="187" text-anchor="middle" font-family="Arial,sans-serif" font-size="20" font-weight="400">17–21</text><rect x="8" y="208" width="210" height="56" fill="#f5f5f5" stroke="#222" stroke-width="2"/><text x="113" y="243" text-anchor="middle" font-family="Arial,sans-serif" font-size="20" font-weight="700">Navajo-Churro</text><rect x="218" y="208" width="280" height="56" fill="white" stroke="#222" stroke-width="2"/><text x="358" y="243" text-anchor="middle" font-family="Arial,sans-serif" font-size="20" font-weight="400">35 or higher</text><rect x="498" y="208" width="280" height="56" fill="white" stroke="#222" stroke-width="2"/><text x="638" y="243" text-anchor="middle" font-family="Arial,sans-serif" font-size="20" font-weight="400">10–35</text><rect x="8" y="264" width="210" height="56" fill="#f5f5f5" stroke="#222" stroke-width="2"/><text x="113" y="299" text-anchor="middle" font-family="Arial,sans-serif" font-size="20" font-weight="700">Mouflon</text><rect x="218" y="264" width="280" height="56" fill="white" stroke="#222" stroke-width="2"/><text x="358" y="299" text-anchor="middle" font-family="Arial,sans-serif" font-size="20" font-weight="400">150</text><rect x="498" y="264" width="280" height="56" fill="white" stroke="#222" stroke-width="2"/><text x="638" y="299" text-anchor="middle" font-family="Arial,sans-serif" font-size="20" font-weight="400">15</text></svg>