<svg version="1.0.0" width="370px" height="336.328125px" viewBox="0 0 370 336.328125" xmlns:xlink="http://www.w3.org/1999/xlink" role="img" xmlns="http://www.w3.org/2000/svg" aria-label="Graph of an inequality in the x y plane with the origin labeled O. The x axis ranges from negative 8 to 8. The y axis ranges from negative 10 to 2. Refer to long description."><defs><marker id="arrow" viewBox="0 -3 10 6" markerUnits="userSpaceOnUse" markerWidth="10px" markerHeight="6px" orient="auto"><path d="M0,-3 L10,0 L0,3" fill="currentColor"></path></marker></defs><g class="graph-group" transform="translate(25, 25)"><g class="grid-group"><g class="x-grid"><line x1="156.1640625" y1="311.328125" x2="156.1640625" y2="0" stroke="#000000" stroke-width="0" class="x-grid"></line><line x1="137.71949259440106" y1="311.328125" x2="137.71949259440106" y2="0" stroke="#000000" stroke-width="1px" class="x-grid"></line><line x1="119.27492268880208" y1="311.328125" x2="119.27492268880208" y2="0" stroke="#000000" stroke-width="1px" class="x-grid"></line><line x1="100.83035278320314" y1="311.328125" x2="100.83035278320314" y2="0" stroke="#000000" stroke-width="1px" class="x-grid"></line><line x1="82.38578287760417" y1="311.328125" x2="82.38578287760417" y2="0" stroke="#000000" stroke-width="1px" class="x-grid"></line><line x1="63.94121297200521" y1="311.328125" x2="63.94121297200521" y2="0" stroke="#000000" stroke-width="1px" class="x-grid"></line><line x1="45.49664306640625" y1="311.328125" x2="45.49664306640625" y2="0" stroke="#000000" stroke-width="1px" class="x-grid"></line><line x1="27.052073160807293" y1="311.328125" x2="27.052073160807293" y2="0" stroke="#000000" stroke-width="1px" class="x-grid"></line><line x1="8.607503255208334" y1="311.328125" x2="8.607503255208334" y2="0" stroke="#000000" stroke-width="1px" class="x-grid"></line><line x1="156.1640625" y1="311.328125" x2="156.1640625" y2="0" stroke="#000000" stroke-width="0" class="x-grid"></line><line x1="174.60863240559897" y1="311.328125" x2="174.60863240559897" y2="0" stroke="#000000" stroke-width="1px" class="x-grid"></line><line x1="193.05320231119794" y1="311.328125" x2="193.05320231119794" y2="0" stroke="#000000" stroke-width="1px" class="x-grid"></line><line x1="211.49777221679688" y1="311.328125" x2="211.49777221679688" y2="0" stroke="#000000" stroke-width="1px" class="x-grid"></line><line x1="229.94234212239584" y1="311.328125" x2="229.94234212239584" y2="0" stroke="#000000" stroke-width="1px" class="x-grid"></line><line x1="248.3869120279948" y1="311.328125" x2="248.3869120279948" y2="0" stroke="#000000" stroke-width="1px" class="x-grid"></line><line x1="266.8314819335938" y1="311.328125" x2="266.8314819335938" y2="0" stroke="#000000" stroke-width="1px" class="x-grid"></line><line x1="285.2760518391927" y1="311.328125" x2="285.2760518391927" y2="0" stroke="#000000" stroke-width="1px" class="x-grid"></line><line x1="303.7206217447917" y1="311.328125" x2="303.7206217447917" y2="0" stroke="#000000" stroke-width="1px" class="x-grid"></line></g><g class="y-grid"><line x1="0" y1="59.594690393518505" x2="311.328125" y2="59.594690393518505" stroke="#000000" stroke-width="0" class="y-grid"></line><line x1="0" y1="83.73703342013889" x2="311.328125" y2="83.73703342013889" stroke="#000000" stroke-width="1px" class="y-grid"></line><line x1="0" y1="107.87937644675928" x2="311.328125" y2="107.87937644675928" stroke="#000000" stroke-width="1px" class="y-grid"></line><line x1="0" y1="132.02171947337962" x2="311.328125" y2="132.02171947337962" stroke="#000000" stroke-width="1px" class="y-grid"></line><line x1="0" y1="156.1640625" x2="311.328125" y2="156.1640625" stroke="#000000" stroke-width="1px" class="y-grid"></line><line x1="0" y1="180.30640552662035" x2="311.328125" y2="180.30640552662035" stroke="#000000" stroke-width="1px" class="y-grid"></line><line x1="0" y1="204.44874855324076" x2="311.328125" y2="204.44874855324076" stroke="#000000" stroke-width="1px" class="y-grid"></line><line x1="0" y1="228.59109157986114" x2="311.328125" y2="228.59109157986114" stroke="#000000" stroke-width="1px" class="y-grid"></line><line x1="0" y1="252.7334346064815" x2="311.328125" y2="252.7334346064815" stroke="#000000" stroke-width="1px" class="y-grid"></line><line x1="0" y1="276.87577763310185" x2="311.328125" y2="276.87577763310185" stroke="#000000" stroke-width="1px" class="y-grid"></line><line x1="0" y1="301.01812065972223" x2="311.328125" y2="301.01812065972223" stroke="#000000" stroke-width="1px" class="y-grid"></line><line x1="0" y1="59.594690393518505" x2="311.328125" y2="59.594690393518505" stroke="#000000" stroke-width="0" class="y-grid"></line><line x1="0" y1="35.45234736689816" x2="311.328125" y2="35.45234736689816" stroke="#000000" stroke-width="1px" class="y-grid"></line><line x1="0" y1="11.310004340277777" x2="311.328125" y2="11.310004340277777" stroke="#000000" stroke-width="1px" class="y-grid"></line></g></g><g class="x-axis-group" fill="none" font-size="10" font-family="sans-serif" text-anchor="middle" transform="translate(0,59.094690393518505)"><g class="tick x-tick" opacity="1" transform="translate(8.607503255208334,0)"><line stroke="currentColor" y2="6px" y1="-6px" stroke-width="1px"></line><rect x="-14.05" y="6" width="20.1px" height="15px" style="fill: white;"></rect><text fill="currentColor" y="8" dy="0.71em" style="font-family: Noto Serif; font-size: 15px;" x="-4">‒8</text></g><g class="tick x-tick" opacity="1" transform="translate(45.49664306640625,0)"><line stroke="currentColor" y2="6px" y1="-6px" stroke-width="1px"></line><rect x="-14.125" y="6" width="20.25px" height="15px" style="fill: white;"></rect><text fill="currentColor" y="8" dy="0.71em" style="font-family: Noto Serif; font-size: 15px;" x="-4">‒6</text></g><g class="tick x-tick" opacity="1" transform="translate(82.38578287760417,0)"><line stroke="currentColor" y2="6px" y1="-6px" stroke-width="1px"></line><rect x="-14.25" y="6" width="20.5px" height="15px" style="fill: white;"></rect><text fill="currentColor" y="8" dy="0.71em" style="font-family: Noto Serif; font-size: 15px;" x="-4">‒4</text></g><g class="tick x-tick" opacity="1" transform="translate(119.27492268880208,0)"><line stroke="currentColor" y2="6px" y1="-6px" stroke-width="1px"></line><rect x="-13.875" y="6" width="19.75px" height="15px" style="fill: white;"></rect><text fill="currentColor" y="8" dy="0.71em" style="font-family: Noto Serif; font-size: 15px;" x="-4">‒2</text></g><g class="tick x-tick" opacity="1" transform="translate(193.05320231119794,0)"><line stroke="currentColor" y2="6px" y1="-6px" stroke-width="1px"></line><rect x="-4.875" y="6" width="9.75px" height="15px" style="fill: white;"></rect><text fill="currentColor" y="8" dy="0.71em" style="font-family: Noto Serif; font-size: 15px;" x="0">2</text></g><g class="tick x-tick" opacity="1" transform="translate(229.94234212239584,0)"><line stroke="currentColor" y2="6px" y1="-6px" stroke-width="1px"></line><rect x="-5.25" y="6" width="10.5px" height="15px" style="fill: white;"></rect><text fill="currentColor" y="8" dy="0.71em" style="font-family: Noto Serif; font-size: 15px;" x="0">4</text></g><g class="tick x-tick" opacity="1" transform="translate(266.8314819335938,0)"><line stroke="currentColor" y2="6px" y1="-6px" stroke-width="1px"></line><rect x="-5.125" y="6" width="10.25px" height="15px" style="fill: white;"></rect><text fill="currentColor" y="8" dy="0.71em" style="font-family: Noto Serif; font-size: 15px;" x="0">6</text></g><g class="tick x-tick" opacity="1" transform="translate(303.7206217447917,0)"><line stroke="currentColor" y2="6px" y1="-6px" stroke-width="1px"></line><rect x="-5.05" y="6" width="10.1px" height="15px" style="fill: white;"></rect><text fill="currentColor" y="8" dy="0.71em" style="font-family: Noto Serif; font-size: 15px;" x="0">8</text></g><line class="x-axis-line" x1="0" x2="311.328125" stroke="currentColor" stroke-width="1.5px"></line><line class="x-axis-line" x1="0" x2="311.328125" stroke="currentColor" stroke-width="1.5px" marker-end="url(#arrow)"></line><text class="x-axis-label" style="text-anchor: start; dominant-baseline: middle; font-family: Noto Serif; font-style: italic; fill: currentColor; font-size: 15px;" transform="translate(323.328125,0)">x</text></g><g class="y-axis-group" fill="none" font-size="10" font-family="sans-serif" text-anchor="end" transform="translate(155.6640625,0)"><g class="tick y-tick" opacity="1" transform="translate(0,301.01812065972223)"><line stroke="currentColor" x2="6px" x1="-6px" stroke-width="1px"></line><rect x="-35.75" y="-8.5" width="28.75px" height="15px" style="fill: white;"></rect><text fill="currentColor" x="-8" dy="0.32em" style="font-family: Noto Serif; font-size: 15px;" y="-1">‒10</text></g><g class="tick y-tick" opacity="1" transform="translate(0,252.7334346064815)"><line stroke="currentColor" x2="6px" x1="-6px" stroke-width="1px"></line><rect x="-27.1" y="-8.5" width="20.1px" height="15px" style="fill: white;"></rect><text fill="currentColor" x="-8" dy="0.32em" style="font-family: Noto Serif; font-size: 15px;" y="-1">‒8</text></g><g class="tick y-tick" opacity="1" transform="translate(0,204.44874855324076)"><line stroke="currentColor" x2="6px" x1="-6px" stroke-width="1px"></line><rect x="-27.25" y="-8.5" width="20.25px" height="15px" style="fill: white;"></rect><text fill="currentColor" x="-8" dy="0.32em" style="font-family: Noto Serif; font-size: 15px;" y="-1">‒6</text></g><g class="tick y-tick" opacity="1" transform="translate(0,156.1640625)"><line stroke="currentColor" x2="6px" x1="-6px" stroke-width="1px"></line><rect x="-27.5" y="-8.5" width="20.5px" height="15px" style="fill: white;"></rect><text fill="currentColor" x="-8" dy="0.32em" style="font-family: Noto Serif; font-size: 15px;" y="-1">‒4</text></g><g class="tick y-tick" opacity="1" transform="translate(0,107.87937644675928)"><line stroke="currentColor" x2="6px" x1="-6px" stroke-width="1px"></line><rect x="-26.75" y="-8.5" width="19.75px" height="15px" style="fill: white;"></rect><text fill="currentColor" x="-8" dy="0.32em" style="font-family: Noto Serif; font-size: 15px;" y="-1">‒2</text></g><g class="tick y-tick" opacity="1" transform="translate(0,11.310004340277777)"><line stroke="currentColor" x2="6px" x1="-6px" stroke-width="1px"></line><rect x="-16.75" y="-7.5" width="9.75px" height="15px" style="fill: white;"></rect><text fill="currentColor" x="-8" dy="0.32em" style="font-family: Noto Serif; font-size: 15px;" y="0">2</text></g><line class="y-axis-line" y1="311.328125" y2="0" stroke="currentColor" stroke-width="1.5px"></line><line class="y-axis-line" y1="311.328125" y2="0" stroke="currentColor" stroke-width="1.5px" marker-end="url(#arrow)"></line><text class="y-axis-label" style="text-anchor: middle; dominant-baseline: text-after-edge; font-family: Noto Serif; font-style: italic; fill: currentColor; font-size: 15px;" transform="translate(0,-12)">y</text></g><path d="M0,155.664L311.322,155.664L311.328,0L0,0L0,155.664" fill="#B7B7B7" style="mix-blend-mode: multiply;"></path><text x="155.6640625" y="59.094690393518505" dx="-13.25px" dy="13.5px" fill="currentColor" style="font-size: 15px; font-style: italic; font-family: Noto Serif;">O</text><path d="M0,155.664L311.322,155.664" stroke="black" stroke-width="3px" fill="none" stroke-dasharray="7,3"></path></g></svg>