<svg xmlns="http://www.w3.org/2000/svg" width="646" height="440" viewBox="0 0 646 440"><rect width="100%" height="100%" fill="white"/><text x="323" y="30" text-anchor="middle" font-family="Arial,sans-serif" font-size="22" font-weight="700">Properties of TRAPPIST-1 Exoplanets Compared to</text><text x="323" y="56" text-anchor="middle" font-family="Arial,sans-serif" font-size="22" font-weight="700">Earth’s Properties</text><rect x="8" y="78" width="190" height="74" fill="#f5f5f5" stroke="#222" stroke-width="2"/><text x="103" y="122" text-anchor="middle" font-family="Arial,sans-serif" font-size="20" font-weight="700">Planet</text><rect x="198" y="78" width="220" height="74" fill="#f5f5f5" stroke="#222" stroke-width="2"/><text x="308" y="109" text-anchor="middle" font-family="Arial,sans-serif" font-size="20" font-weight="700">Orbital period</text><text x="308" y="135" text-anchor="middle" font-family="Arial,sans-serif" font-size="20" font-weight="700">(days)</text><rect x="418" y="78" width="220" height="74" fill="#f5f5f5" stroke="#222" stroke-width="2"/><text x="528" y="109" text-anchor="middle" font-family="Arial,sans-serif" font-size="20" font-weight="700">Planet radius</text><text x="528" y="135" text-anchor="middle" font-family="Arial,sans-serif" font-size="20" font-weight="700">(Earth radii)</text><rect x="8" y="152" width="190" height="56" fill="#f5f5f5" stroke="#222" stroke-width="2"/><text x="103" y="187" text-anchor="middle" font-family="Arial,sans-serif" font-size="20" font-weight="700">Earth</text><rect x="198" y="152" width="220" height="56" fill="white" stroke="#222" stroke-width="2"/><text x="308" y="187" text-anchor="middle" font-family="Arial,sans-serif" font-size="20" font-weight="400">365.26</text><rect x="418" y="152" width="220" height="56" fill="white" stroke="#222" stroke-width="2"/><text x="528" y="187" text-anchor="middle" font-family="Arial,sans-serif" font-size="20" font-weight="400">1</text><rect x="8" y="208" width="190" height="56" fill="#f5f5f5" stroke="#222" stroke-width="2"/><text x="103" y="243" text-anchor="middle" font-family="Arial,sans-serif" font-size="20" font-weight="700">TRAPPIST-1b</text><rect x="198" y="208" width="220" height="56" fill="white" stroke="#222" stroke-width="2"/><text x="308" y="243" text-anchor="middle" font-family="Arial,sans-serif" font-size="20" font-weight="400">1.51</text><rect x="418" y="208" width="220" height="56" fill="white" stroke="#222" stroke-width="2"/><text x="528" y="243" text-anchor="middle" font-family="Arial,sans-serif" font-size="20" font-weight="400">1.09</text><rect x="8" y="264" width="190" height="56" fill="#f5f5f5" stroke="#222" stroke-width="2"/><text x="103" y="299" text-anchor="middle" font-family="Arial,sans-serif" font-size="20" font-weight="700">TRAPPIST-1d</text><rect x="198" y="264" width="220" height="56" fill="white" stroke="#222" stroke-width="2"/><text x="308" y="299" text-anchor="middle" font-family="Arial,sans-serif" font-size="20" font-weight="400">4.05</text><rect x="418" y="264" width="220" height="56" fill="white" stroke="#222" stroke-width="2"/><text x="528" y="299" text-anchor="middle" font-family="Arial,sans-serif" font-size="20" font-weight="400">0.77</text><rect x="8" y="320" width="190" height="56" fill="#f5f5f5" stroke="#222" stroke-width="2"/><text x="103" y="355" text-anchor="middle" font-family="Arial,sans-serif" font-size="20" font-weight="700">TRAPPIST-1e</text><rect x="198" y="320" width="220" height="56" fill="white" stroke="#222" stroke-width="2"/><text x="308" y="355" text-anchor="middle" font-family="Arial,sans-serif" font-size="20" font-weight="400">6.1</text><rect x="418" y="320" width="220" height="56" fill="white" stroke="#222" stroke-width="2"/><text x="528" y="355" text-anchor="middle" font-family="Arial,sans-serif" font-size="20" font-weight="400">0.92</text><rect x="8" y="376" width="190" height="56" fill="#f5f5f5" stroke="#222" stroke-width="2"/><text x="103" y="411" text-anchor="middle" font-family="Arial,sans-serif" font-size="20" font-weight="700">TRAPPIST-1f</text><rect x="198" y="376" width="220" height="56" fill="white" stroke="#222" stroke-width="2"/><text x="308" y="411" text-anchor="middle" font-family="Arial,sans-serif" font-size="20" font-weight="400">9.21</text><rect x="418" y="376" width="220" height="56" fill="white" stroke="#222" stroke-width="2"/><text x="528" y="411" text-anchor="middle" font-family="Arial,sans-serif" font-size="20" font-weight="400">1.04</text></svg>