<svg xmlns="http://www.w3.org/2000/svg" width="376" height="352" viewBox="0 0 376 352"><rect width="100%" height="100%" fill="white"/><rect x="8" y="8" width="170" height="56" fill="#f5f5f5" stroke="#222" stroke-width="2"/><text x="93" y="43" text-anchor="middle" font-family="Arial,sans-serif" font-size="20" font-weight="700">Task</text><rect x="178" y="8" width="190" height="56" fill="#f5f5f5" stroke="#222" stroke-width="2"/><text x="273" y="43" text-anchor="middle" font-family="Arial,sans-serif" font-size="20" font-weight="700">Time (minutes)</text><rect x="8" y="64" width="170" height="56" fill="white" stroke="#222" stroke-width="2"/><text x="93" y="99" text-anchor="middle" font-family="Arial,sans-serif" font-size="20" font-weight="400">I</text><rect x="178" y="64" width="190" height="56" fill="white" stroke="#222" stroke-width="2"/><text x="273" y="99" text-anchor="middle" font-family="Arial,sans-serif" font-size="20" font-weight="400">5</text><rect x="8" y="120" width="170" height="56" fill="white" stroke="#222" stroke-width="2"/><text x="93" y="155" text-anchor="middle" font-family="Arial,sans-serif" font-size="20" font-weight="400">II</text><rect x="178" y="120" width="190" height="56" fill="white" stroke="#222" stroke-width="2"/><text x="273" y="155" text-anchor="middle" font-family="Arial,sans-serif" font-size="20" font-weight="400">2</text><rect x="8" y="176" width="170" height="56" fill="white" stroke="#222" stroke-width="2"/><text x="93" y="211" text-anchor="middle" font-family="Arial,sans-serif" font-size="20" font-weight="400">III</text><rect x="178" y="176" width="190" height="56" fill="white" stroke="#222" stroke-width="2"/><text x="273" y="211" text-anchor="middle" font-family="Arial,sans-serif" font-size="20" font-weight="400">15</text><rect x="8" y="232" width="170" height="56" fill="white" stroke="#222" stroke-width="2"/><text x="93" y="267" text-anchor="middle" font-family="Arial,sans-serif" font-size="20" font-weight="400">IV</text><rect x="178" y="232" width="190" height="56" fill="white" stroke="#222" stroke-width="2"/><text x="273" y="267" text-anchor="middle" font-family="Arial,sans-serif" font-size="20" font-weight="400">9</text><rect x="8" y="288" width="170" height="56" fill="white" stroke="#222" stroke-width="2"/><text x="93" y="323" text-anchor="middle" font-family="Arial,sans-serif" font-size="20" font-weight="400">V</text><rect x="178" y="288" width="190" height="56" fill="white" stroke="#222" stroke-width="2"/><text x="273" y="323" text-anchor="middle" font-family="Arial,sans-serif" font-size="20" font-weight="400">9</text></svg>