<svg aria-label="Graph of a line in the x y plane with the origin labeled O. The x axis is labeled Company A. It ranges from 0 to 100 in increments of 5, with values marked every 2 grid lines. The y axis is labeled Company B. It ranges from 0 to 50 in increments of 5, with values marked every 2 grid lines. Refer to long description." height="374.051875px" role="img" version="1.1" viewBox="0 0 399.251875 374.051875" width="399.251875px" xmlns="http://www.w3.org/2000/svg" xmlns:xlink="http://www.w3.org/1999/xlink">
<defs>
<style type="text/css">
*{stroke-linecap:butt;stroke-linejoin:round;}
  </style>
</defs>
<g id="figure_1">
<g id="patch_1">
<path d="M 0 374.051875 
L 399.251875 374.051875 
L 399.251875 0 
L 0 0 
z
" style="fill:none;"></path>
</g>
<g id="axes_1">
<g id="patch_2">
<path d="M 29.171875 344.88 
L 392.051875 344.88 
L 392.051875 12.24 
L 29.171875 12.24 
z
" style="fill:none;"></path>
</g>
<g id="matplotlib.axis_1">
<g id="text_1">
<!-- Company A -->
<defs>
<path d="M 61.921875 17.875 
Q 61.921875 16.796875 60.546875 10.390625 
Q 59.1875 4 58.59375 3.71875 
Q 51.46875 -0.59375 35.25 -0.59375 
Q 22.359375 -0.59375 13.328125 8.875 
Q 4.296875 18.359375 4.296875 31.453125 
Q 4.296875 45.3125 13.578125 55.21875 
Q 22.859375 65.140625 36.328125 65.140625 
Q 47.859375 65.140625 60.0625 62.703125 
Q 59.859375 49.609375 59.859375 48.640625 
Q 59.859375 47.171875 57.8125 47.171875 
Q 56.84375 47.171875 56.546875 47.65625 
Q 56.25 48.921875 55.8125 50.234375 
Q 55.375 51.5625 53.953125 53.65625 
Q 52.546875 55.765625 50.53125 57.28125 
Q 48.53125 58.796875 44.875 59.90625 
Q 41.21875 61.03125 36.625 61.03125 
Q 27.046875 61.03125 20.3125 52.578125 
Q 13.578125 44.140625 13.578125 33.5 
Q 13.578125 25.59375 16.3125 18.953125 
Q 19.046875 12.3125 24.953125 7.953125 
Q 30.859375 3.609375 38.96875 3.609375 
Q 48.640625 3.609375 53.90625 9.28125 
Q 55.28125 10.75 56.296875 13.140625 
Q 57.328125 15.53125 57.859375 17.140625 
Q 58.40625 18.75 58.6875 18.75 
Q 59.28125 18.75 60.109375 18.546875 
Q 60.9375 18.359375 61.421875 18.171875 
z
" id="CrimsonText-Regular-67"></path>
<path d="M 23.734375 38.875 
Q 18.5625 38.875 15.28125 34.125 
Q 12.015625 29.390625 12.015625 22.5625 
Q 12.015625 14.546875 16.15625 8.828125 
Q 20.3125 3.125 25.875 3.125 
Q 31.0625 3.125 34.375 8 
Q 37.703125 12.890625 37.703125 19.734375 
Q 37.703125 27.640625 33.5 33.25 
Q 29.296875 38.875 23.734375 38.875 
z
M 24.8125 42.671875 
Q 33.59375 42.671875 39.84375 36.328125 
Q 46.09375 29.984375 46.09375 21.09375 
Q 46.09375 12.109375 39.984375 5.703125 
Q 33.890625 -0.6875 25 -0.6875 
Q 16.109375 -0.6875 9.859375 5.703125 
Q 3.609375 12.109375 3.609375 21.09375 
Q 3.609375 30.171875 9.65625 36.421875 
Q 15.71875 42.671875 24.8125 42.671875 
z
" id="CrimsonText-Regular-111"></path>
<path d="M 31.25 42.78125 
Q 35.15625 42.78125 37.734375 40.671875 
Q 40.328125 38.578125 41.3125 35.84375 
Q 48.640625 42.78125 56.453125 42.78125 
Q 68.75 42.78125 68.75 24.03125 
L 68.75 13.1875 
Q 68.75 7.515625 69.53125 4.5 
Q 69.734375 3.8125 72.078125 3.171875 
Q 74.421875 2.546875 75.390625 2.546875 
Q 75.6875 2.546875 75.78125 1.375 
Q 75.875 0.203125 75.6875 -0.296875 
Q 65.921875 0.203125 65.234375 0.203125 
Q 64.65625 0.203125 54.59375 -0.296875 
Q 54.203125 0.09375 54.203125 1.3125 
Q 54.203125 2.546875 54.59375 2.546875 
Q 55.765625 2.546875 58.0625 3.171875 
Q 60.359375 3.8125 60.546875 4.5 
Q 61.234375 7.328125 61.234375 10.75 
L 61.234375 21.78125 
Q 61.234375 36.8125 51.375 36.8125 
Q 47.75 36.8125 45.109375 34.71875 
Q 42.484375 32.625 42.484375 31.25 
L 42.578125 30.859375 
Q 42.578125 30.46875 42.578125 30.375 
Q 42.96875 27.9375 42.96875 23.34375 
L 42.96875 12.3125 
Q 42.96875 7.515625 43.75 4.5 
Q 43.953125 3.8125 46.296875 3.171875 
Q 48.640625 2.546875 49.609375 2.546875 
Q 49.90625 2.546875 50 1.375 
Q 50.09375 0.203125 49.90625 -0.296875 
Q 40.140625 0.203125 39.453125 0.203125 
Q 38.875 0.203125 28.8125 -0.296875 
Q 28.421875 0.09375 28.421875 1.3125 
Q 28.421875 2.546875 28.8125 2.546875 
Q 29.984375 2.546875 32.28125 3.171875 
Q 34.578125 3.8125 34.765625 4.5 
Q 35.453125 7.328125 35.453125 11.328125 
L 35.453125 21.296875 
Q 35.453125 36.8125 26.078125 36.8125 
Q 23.140625 36.8125 20.15625 34.609375 
Q 17.1875 32.421875 17.1875 30.375 
L 17.1875 13.1875 
Q 17.1875 7.515625 17.96875 4.5 
Q 18.171875 3.8125 20.515625 3.171875 
Q 22.859375 2.546875 23.828125 2.546875 
Q 24.125 2.546875 24.21875 1.375 
Q 24.3125 0.203125 24.125 -0.296875 
Q 14.359375 0.203125 13.671875 0.203125 
Q 13.09375 0.203125 3.03125 -0.296875 
Q 2.640625 0.09375 2.640625 1.3125 
Q 2.640625 2.546875 3.03125 2.546875 
Q 4.203125 2.546875 6.5 3.171875 
Q 8.796875 3.8125 8.984375 4.5 
Q 9.671875 7.328125 9.671875 11.328125 
L 9.671875 29.78125 
Q 9.671875 33.59375 8.296875 35.0625 
Q 7.328125 36.234375 5.90625 36.671875 
Q 4.5 37.109375 3.5625 37.109375 
Q 2.640625 37.109375 2.640625 37.3125 
Q 2.640625 39.65625 3.21875 39.75 
Q 13.578125 41.3125 16.703125 42.28125 
Q 16.796875 42.28125 16.984375 42.328125 
Q 17.1875 42.390625 17.1875 42.390625 
Q 17.578125 42.390625 17.671875 41.546875 
Q 17.78125 40.71875 17.671875 40.328125 
Q 17.28125 37.59375 17.28125 36.421875 
Q 17.28125 36.03125 17.484375 36.03125 
Q 17.578125 36.03125 17.78125 36.234375 
Q 20.015625 38.578125 23.875 40.671875 
Q 27.734375 42.78125 31.25 42.78125 
z
" id="CrimsonText-Regular-109"></path>
<path d="M 26.265625 42.578125 
Q 35.640625 42.578125 40.90625 36.28125 
Q 46.1875 29.984375 46.1875 22.859375 
Q 46.1875 13.484375 39.640625 6.34375 
Q 33.109375 -0.78125 24.8125 -0.78125 
Q 23.34375 -0.78125 22.21875 -0.6875 
Q 21.09375 -0.59375 20.21875 -0.34375 
Q 19.34375 -0.09375 18.84375 0.09375 
Q 18.359375 0.296875 17.578125 0.640625 
Q 16.796875 0.984375 16.609375 1.078125 
Q 16.21875 0.59375 16.21875 -0.203125 
L 16.21875 -8.59375 
Q 16.21875 -14.265625 17 -17.28125 
Q 17.1875 -17.96875 19.53125 -18.59375 
Q 21.875 -19.234375 22.859375 -19.234375 
Q 23.140625 -19.234375 23.234375 -20.453125 
Q 23.34375 -21.6875 23.140625 -22.078125 
Q 13.375 -21.578125 12.703125 -21.578125 
Q 12.109375 -21.578125 2.046875 -22.078125 
Q 1.65625 -21.6875 1.65625 -20.453125 
Q 1.65625 -19.234375 2.046875 -19.234375 
Q 3.21875 -19.234375 5.515625 -18.59375 
Q 7.8125 -17.96875 8.015625 -17.28125 
Q 8.6875 -14.453125 8.6875 -10.453125 
L 8.6875 29.890625 
Q 8.6875 33.6875 7.328125 35.15625 
Q 6.34375 36.328125 4.921875 36.765625 
Q 3.515625 37.203125 2.578125 37.203125 
Q 1.65625 37.203125 1.65625 37.40625 
Q 1.65625 39.75 2.25 39.84375 
Q 12.59375 41.40625 15.71875 42.390625 
Q 15.828125 42.390625 16.015625 42.4375 
Q 16.21875 42.484375 16.21875 42.484375 
Q 16.5 42.484375 16.5 41.9375 
Q 16.5 41.40625 16.40625 40.625 
Q 16.3125 39.84375 16.3125 39.75 
L 16.3125 39.15625 
Q 17.671875 40.140625 20.84375 41.359375 
Q 24.03125 42.578125 26.265625 42.578125 
z
M 23.140625 37.796875 
Q 20.125 37.796875 18.171875 36.1875 
Q 16.21875 34.578125 16.21875 31.546875 
L 16.21875 9.578125 
Q 16.21875 6.9375 19.046875 5.125 
Q 21.875 3.328125 25.203125 3.328125 
Q 30.953125 3.328125 34.375 8.5 
Q 37.796875 13.671875 37.796875 20.125 
Q 37.796875 28.328125 33.453125 33.0625 
Q 29.109375 37.796875 23.140625 37.796875 
z
" id="CrimsonText-Regular-112"></path>
<path d="M 12.015625 7.71875 
Q 15.328125 4.890625 17.96875 4.890625 
Q 20.609375 4.890625 23.046875 6.5 
Q 25.484375 8.109375 25.484375 9.765625 
L 25.484375 19.828125 
Q 24.703125 19.4375 21.671875 18.453125 
Q 18.65625 17.484375 16.9375 16.75 
Q 15.234375 16.015625 13.625 14.296875 
Q 12.015625 12.59375 12.015625 10.359375 
Q 12.015625 7.71875 15.328125 4.890625 
z
M 22.859375 42.578125 
Q 28.21875 42.578125 30.5625 39.984375 
Q 32.90625 37.40625 32.90625 31.640625 
L 32.90625 9.078125 
Q 32.90625 7.03125 33.984375 5.65625 
Q 35.0625 4.296875 36.921875 4.296875 
Q 38.28125 4.296875 40.328125 5.671875 
Q 40.71875 5.671875 40.71875 4.890625 
Q 40.71875 3.609375 40.234375 2.828125 
Q 36.234375 -0.59375 33.40625 -0.59375 
Q 31.15625 -0.59375 29.09375 1.265625 
Q 27.046875 3.125 26.265625 5.171875 
Q 26.171875 5.171875 25.53125 4.53125 
Q 24.90625 3.90625 23.828125 3.078125 
Q 22.75 2.25 21.328125 1.359375 
Q 19.921875 0.484375 18.015625 -0.09375 
Q 16.109375 -0.6875 14.15625 -0.6875 
Q 9.671875 -0.6875 6.734375 1.703125 
Q 3.8125 4.109375 3.8125 8.890625 
Q 3.8125 11.03125 4.875 12.9375 
Q 5.953125 14.84375 7.421875 16.0625 
Q 8.890625 17.28125 11.421875 18.546875 
Q 13.96875 19.828125 15.765625 20.453125 
Q 17.578125 21.09375 20.5 22.0625 
Q 23.4375 23.046875 24.609375 23.53125 
Q 25.484375 23.828125 25.484375 25 
L 25.484375 32.328125 
Q 25.484375 35.453125 23.53125 37.15625 
Q 21.578125 38.875 18.84375 38.875 
Q 15.921875 38.875 13.96875 36.859375 
Q 12.015625 34.859375 12.015625 31.640625 
Q 12.015625 28.21875 8.015625 28.21875 
Q 5.28125 28.21875 4.203125 30.078125 
Q 4.203125 34.28125 10.34375 38.421875 
Q 16.5 42.578125 22.859375 42.578125 
z
" id="CrimsonText-Regular-97"></path>
<path d="M 31.453125 42.78125 
Q 38.28125 42.78125 41.015625 37.890625 
Q 43.75 33.015625 43.75 22.078125 
L 43.75 13.1875 
Q 43.75 7.515625 44.53125 4.5 
Q 44.734375 3.8125 47.078125 3.171875 
Q 49.421875 2.546875 50.390625 2.546875 
Q 50.6875 2.546875 50.78125 1.375 
Q 50.875 0.203125 50.6875 -0.296875 
Q 40.921875 0.203125 40.234375 0.203125 
Q 40.046875 0.203125 29.984375 -0.296875 
Q 29.59375 0.09375 29.59375 1.3125 
Q 29.59375 2.546875 29.984375 2.546875 
Q 31.15625 2.546875 33.25 3.171875 
Q 35.359375 3.8125 35.546875 4.5 
Q 36.234375 7.328125 36.234375 11.328125 
L 36.234375 21.09375 
Q 36.234375 30.171875 33.890625 33.484375 
Q 31.546875 36.8125 26.265625 36.8125 
Q 23.140625 36.8125 20.265625 34.515625 
Q 17.390625 32.234375 17.390625 30.375 
L 17.390625 13.1875 
Q 17.390625 7.515625 18.171875 4.5 
Q 18.359375 3.8125 20.703125 3.171875 
Q 23.046875 2.546875 24.03125 2.546875 
Q 24.3125 2.546875 24.40625 1.375 
Q 24.515625 0.203125 24.3125 -0.296875 
Q 14.546875 0.203125 13.875 0.203125 
Q 13.28125 0.203125 3.21875 -0.296875 
Q 2.828125 0.09375 2.828125 1.3125 
Q 2.828125 2.546875 3.21875 2.546875 
Q 4.390625 2.546875 6.6875 3.171875 
Q 8.984375 3.8125 9.1875 4.5 
Q 9.859375 7.328125 9.859375 11.328125 
L 9.859375 29.78125 
Q 9.859375 33.59375 8.5 35.0625 
Q 7.515625 36.234375 6.09375 36.671875 
Q 4.6875 37.109375 3.75 37.109375 
Q 2.828125 37.109375 2.828125 37.3125 
Q 2.828125 39.65625 3.421875 39.75 
Q 13.765625 41.3125 16.890625 42.28125 
Q 17 42.28125 17.1875 42.328125 
Q 17.390625 42.390625 17.390625 42.390625 
Q 17.78125 42.390625 17.875 41.546875 
Q 17.96875 40.71875 17.875 40.328125 
Q 17.484375 37.59375 17.484375 36.421875 
Q 17.484375 36.03125 17.671875 36.03125 
Q 17.78125 36.03125 17.96875 36.234375 
Q 20.21875 38.578125 24.078125 40.671875 
Q 27.9375 42.78125 31.453125 42.78125 
z
" id="CrimsonText-Regular-110"></path>
<path d="M 11.140625 41.890625 
Q 12.796875 41.890625 14.203125 41.984375 
Q 15.625 42.09375 17.421875 42.1875 
Q 19.234375 42.28125 20.609375 42.390625 
Q 20.796875 41.796875 20.796875 40.921875 
Q 20.796875 39.546875 20.40625 39.546875 
Q 19.625 39.546875 17.8125 38.859375 
Q 16.015625 38.1875 15.828125 37.5 
L 15.828125 37.3125 
Q 15.828125 35.546875 26.265625 11.8125 
L 33.6875 33.203125 
Q 34.375 35.25 34.375 36.234375 
Q 34.375 37.703125 32.859375 38.625 
Q 31.34375 39.546875 28.8125 39.546875 
Q 28.421875 39.546875 28.421875 40.828125 
Q 28.421875 42 28.8125 42.390625 
Q 30.078125 42.28125 32.609375 42.078125 
Q 35.15625 41.890625 37.5 41.890625 
Q 39.65625 41.890625 42.1875 42.078125 
Q 44.734375 42.28125 46 42.390625 
Q 46.1875 41.796875 46.1875 40.921875 
Q 46.1875 39.546875 45.796875 39.546875 
Q 44.53125 39.546875 42.328125 38.671875 
Q 40.140625 37.796875 39.453125 35.84375 
L 21.96875 -11.328125 
Q 19.734375 -17.390625 16.890625 -19.78125 
Q 14.0625 -22.171875 11.71875 -22.171875 
Q 9.671875 -22.171875 8.6875 -20.890625 
Q 7.71875 -19.625 7.71875 -18.359375 
Q 7.71875 -16.21875 9.078125 -15.234375 
Q 17.1875 -15.234375 19.828125 -6.84375 
Q 20.3125 -5.375 21 -3.3125 
Q 21.6875 -1.265625 22.078125 0 
L 8.109375 34.1875 
Q 7.03125 36.53125 6.15625 37.5 
Q 5.28125 38.375 3.46875 38.953125 
Q 1.65625 39.546875 0.59375 39.546875 
Q 0.203125 39.546875 0.203125 40.828125 
Q 0.203125 42 0.59375 42.390625 
Q 10.640625 41.890625 11.140625 41.890625 
z
" id="CrimsonText-Regular-121"></path>
<path id="CrimsonText-Regular-32"></path>
<path d="M 35.640625 64.453125 
L 55.171875 12.890625 
Q 56.9375 8.296875 58.015625 5.859375 
Q 58.59375 4.390625 61.03125 3.46875 
Q 63.484375 2.546875 64.65625 2.546875 
Q 65.046875 2.546875 65.046875 0.6875 
Q 65.046875 0.296875 64.84375 -0.296875 
Q 55.078125 0.203125 54.109375 0.203125 
Q 54 0.203125 42.78125 -0.296875 
Q 42.390625 0.09375 42.4375 1.3125 
Q 42.484375 2.546875 42.875 2.546875 
Q 44.046875 2.546875 45.796875 3.03125 
Q 47.5625 3.515625 47.859375 4.296875 
Q 48.046875 5.078125 48.046875 5.859375 
Q 48.046875 7.125 47.703125 8.828125 
Q 47.359375 10.546875 47.078125 11.53125 
L 46.6875 12.59375 
L 42.671875 23.640625 
Q 42.390625 24.03125 42.09375 24.03125 
Q 38.28125 24.3125 34.671875 24.3125 
Q 29.59375 24.3125 22.265625 23.828125 
L 21.78125 23.53125 
L 17.578125 12.796875 
Q 15.921875 7.90625 15.921875 6.0625 
Q 15.921875 4.6875 16.703125 4.109375 
Q 17.578125 3.421875 19.53125 2.984375 
Q 21.484375 2.546875 22.359375 2.546875 
Q 22.65625 2.546875 22.703125 1.375 
Q 22.75 0.203125 22.5625 -0.296875 
Q 12.796875 0.203125 12.5 0.203125 
Q 10.546875 0.203125 9.078125 0.09375 
Q 7.625 0 5.8125 -0.09375 
Q 4 -0.203125 2.34375 -0.296875 
Q 1.953125 0.09375 1.953125 1.171875 
Q 1.953125 2.546875 2.34375 2.546875 
Q 3.515625 2.546875 5.375 3.03125 
Q 7.234375 3.515625 7.90625 4.390625 
Q 9.96875 7.03125 12.5 13.578125 
L 29.5 57.234375 
Q 29.6875 57.71875 30.03125 58.78125 
Q 30.375 59.859375 30.5625 60.390625 
Q 30.765625 60.9375 31.15625 61.765625 
Q 31.546875 62.59375 31.828125 62.984375 
Q 32.125 63.375 32.5625 63.859375 
Q 33.015625 64.359375 33.546875 64.546875 
Q 34.078125 64.75 34.765625 64.75 
z
M 24.3125 29.203125 
Q 29.390625 29 31.25 29 
Q 35.546875 29 40.140625 29.296875 
L 40.4375 29.78125 
L 32.515625 51.375 
L 24.125 29.59375 
Q 24.125 29.203125 24.3125 29.203125 
z
" id="CrimsonText-Regular-65"></path>
</defs>
<g transform="translate(163.636875 362.4175)scale(0.2 -0.2)">
<use xlink:href="#CrimsonText-Regular-67"></use>
<use x="64.0625" xlink:href="#CrimsonText-Regular-111"></use>
<use x="113.867188" xlink:href="#CrimsonText-Regular-109"></use>
<use x="191.992188" xlink:href="#CrimsonText-Regular-112"></use>
<use x="241.894531" xlink:href="#CrimsonText-Regular-97"></use>
<use x="283.203125" xlink:href="#CrimsonText-Regular-110"></use>
<use x="336.230469" xlink:href="#CrimsonText-Regular-121"></use>
<use x="380.566406" xlink:href="#CrimsonText-Regular-32"></use>
<use x="402.929688" xlink:href="#CrimsonText-Regular-65"></use>
</g>
</g>
</g>
<g id="matplotlib.axis_2">
<g id="text_2">
<!-- Company B -->
<defs>
<path d="M 44.625 17.1875 
Q 44.625 23.4375 40.421875 27.875 
Q 36.234375 32.328125 27.25 32.328125 
Q 25.09375 32.328125 20.21875 31.9375 
Q 19.828125 30.765625 19.828125 28.71875 
L 19.828125 14.453125 
Q 19.828125 7.03125 21.390625 5.765625 
Q 22.859375 4.390625 26.65625 4.390625 
Q 29.109375 4.390625 31.5 4.78125 
Q 33.890625 5.171875 37.203125 6.296875 
Q 40.53125 7.421875 42.578125 10.203125 
Q 44.625 12.984375 44.625 17.1875 
z
M 11.328125 13.96875 
L 11.328125 50.875 
Q 11.328125 56.640625 10.640625 59.28125 
Q 10.359375 60.0625 7.765625 60.734375 
Q 5.171875 61.421875 3.90625 61.421875 
Q 3.515625 61.421875 3.515625 62.59375 
Q 3.515625 63.875 3.90625 64.265625 
Q 8.984375 64.0625 15.53125 64.0625 
Q 20.515625 64.0625 23.6875 64.109375 
Q 26.859375 64.15625 29.296875 64.15625 
Q 31.84375 64.15625 34.46875 63.71875 
Q 37.109375 63.28125 39.890625 62.109375 
Q 42.671875 60.9375 44.8125 59.171875 
Q 46.96875 57.421875 48.328125 54.53125 
Q 49.703125 51.65625 49.703125 48.140625 
Q 49.703125 44.625 47.453125 41.59375 
Q 45.21875 38.578125 43.3125 37.40625 
Q 41.40625 36.234375 40.046875 35.75 
Q 39.265625 35.453125 39.546875 35.15625 
Q 43.359375 34.46875 48.625 29.640625 
Q 53.90625 24.8125 53.90625 18.265625 
Q 53.90625 9.859375 47.109375 4.921875 
Q 40.328125 0 29.109375 0 
L 15.71875 0 
L 3.90625 -0.296875 
Q 3.609375 0 3.609375 1.265625 
Q 3.609375 2.546875 3.90625 2.546875 
Q 5.171875 2.546875 7.65625 3.21875 
Q 10.15625 3.90625 10.640625 4.78125 
Q 11.328125 5.953125 11.328125 13.96875 
z
M 31.734375 36.71875 
Q 35.75 37.109375 38.421875 39.5 
Q 41.109375 41.890625 41.109375 45.90625 
Q 41.109375 52.640625 37.734375 56.390625 
Q 34.375 60.15625 27.734375 60.15625 
Q 23.25 60.15625 20.796875 59.46875 
Q 20.21875 59.375 20.21875 58.59375 
L 19.828125 48.734375 
L 19.828125 37.109375 
Q 19.828125 36.421875 26.265625 36.421875 
Q 29.390625 36.421875 31.734375 36.71875 
z
" id="CrimsonText-Regular-66"></path>
</defs>
<g transform="translate(20.7375 224.636562)rotate(-90)scale(0.2 -0.2)">
<use xlink:href="#CrimsonText-Regular-67"></use>
<use x="64.0625" xlink:href="#CrimsonText-Regular-111"></use>
<use x="113.867188" xlink:href="#CrimsonText-Regular-109"></use>
<use x="191.992188" xlink:href="#CrimsonText-Regular-112"></use>
<use x="241.894531" xlink:href="#CrimsonText-Regular-97"></use>
<use x="283.203125" xlink:href="#CrimsonText-Regular-110"></use>
<use x="336.230469" xlink:href="#CrimsonText-Regular-121"></use>
<use x="380.566406" xlink:href="#CrimsonText-Regular-32"></use>
<use x="402.929688" xlink:href="#CrimsonText-Regular-66"></use>
</g>
</g>
</g>
</g>
<g id="axes_2">
<g id="patch_3">
<path d="M 31.839636 354.96 
L 381.824114 354.96 
L 381.824114 7.2 
L 31.839636 7.2 
z
" style="fill:none;"></path>
</g>
<g id="matplotlib.axis_3">
<g id="xtick_1"></g>
<g id="xtick_2"></g>
<g id="xtick_3"></g>
<g id="xtick_4"></g>
<g id="xtick_5"></g>
<g id="xtick_6"></g>
</g>
<g id="matplotlib.axis_4">
<g id="ytick_1"></g>
<g id="ytick_2"></g>
<g id="ytick_3"></g>
<g id="ytick_4"></g>
<g id="ytick_5"></g>
<g id="ytick_6"></g>
</g>
<g id="LineCollection_1">
<path clip-path="url(#p9603ccb07b)" d="M 88.867153 326.345129 
L 88.867153 43.229796 
" style="fill:none;stroke:#000000;stroke-width:0.708982;"></path>
<path clip-path="url(#p9603ccb07b)" d="M 102.348836 326.345129 
L 102.348836 43.229796 
" style="fill:none;stroke:#000000;stroke-width:0.708982;"></path>
<path clip-path="url(#p9603ccb07b)" d="M 115.830518 326.345129 
L 115.830518 43.229796 
" style="fill:none;stroke:#000000;stroke-width:0.708982;"></path>
<path clip-path="url(#p9603ccb07b)" d="M 129.312201 326.345129 
L 129.312201 43.229796 
" style="fill:none;stroke:#000000;stroke-width:0.708982;"></path>
<path clip-path="url(#p9603ccb07b)" d="M 142.793883 326.345129 
L 142.793883 43.229796 
" style="fill:none;stroke:#000000;stroke-width:0.708982;"></path>
<path clip-path="url(#p9603ccb07b)" d="M 156.275566 326.345129 
L 156.275566 43.229796 
" style="fill:none;stroke:#000000;stroke-width:0.708982;"></path>
<path clip-path="url(#p9603ccb07b)" d="M 169.757248 326.345129 
L 169.757248 43.229796 
" style="fill:none;stroke:#000000;stroke-width:0.708982;"></path>
<path clip-path="url(#p9603ccb07b)" d="M 183.238931 326.345129 
L 183.238931 43.229796 
" style="fill:none;stroke:#000000;stroke-width:0.708982;"></path>
<path clip-path="url(#p9603ccb07b)" d="M 196.720613 326.345129 
L 196.720613 43.229796 
" style="fill:none;stroke:#000000;stroke-width:0.708982;"></path>
<path clip-path="url(#p9603ccb07b)" d="M 210.202296 326.345129 
L 210.202296 43.229796 
" style="fill:none;stroke:#000000;stroke-width:0.708982;"></path>
<path clip-path="url(#p9603ccb07b)" d="M 223.683978 326.345129 
L 223.683978 43.229796 
" style="fill:none;stroke:#000000;stroke-width:0.708982;"></path>
<path clip-path="url(#p9603ccb07b)" d="M 237.165661 326.345129 
L 237.165661 43.229796 
" style="fill:none;stroke:#000000;stroke-width:0.708982;"></path>
<path clip-path="url(#p9603ccb07b)" d="M 250.647343 326.345129 
L 250.647343 43.229796 
" style="fill:none;stroke:#000000;stroke-width:0.708982;"></path>
<path clip-path="url(#p9603ccb07b)" d="M 264.129026 326.345129 
L 264.129026 43.229796 
" style="fill:none;stroke:#000000;stroke-width:0.708982;"></path>
<path clip-path="url(#p9603ccb07b)" d="M 277.610708 326.345129 
L 277.610708 43.229796 
" style="fill:none;stroke:#000000;stroke-width:0.708982;"></path>
<path clip-path="url(#p9603ccb07b)" d="M 291.092391 326.345129 
L 291.092391 43.229796 
" style="fill:none;stroke:#000000;stroke-width:0.708982;"></path>
<path clip-path="url(#p9603ccb07b)" d="M 304.574073 326.345129 
L 304.574073 43.229796 
" style="fill:none;stroke:#000000;stroke-width:0.708982;"></path>
<path clip-path="url(#p9603ccb07b)" d="M 318.055756 326.345129 
L 318.055756 43.229796 
" style="fill:none;stroke:#000000;stroke-width:0.708982;"></path>
<path clip-path="url(#p9603ccb07b)" d="M 331.537438 326.345129 
L 331.537438 43.229796 
" style="fill:none;stroke:#000000;stroke-width:0.708982;"></path>
<path clip-path="url(#p9603ccb07b)" d="M 345.019121 326.345129 
L 345.019121 43.229796 
" style="fill:none;stroke:#000000;stroke-width:0.708982;"></path>
<path clip-path="url(#p9603ccb07b)" d="M 68.644629 292.640923 
L 351.759962 292.640923 
" style="fill:none;stroke:#000000;stroke-width:0.708982;"></path>
<path clip-path="url(#p9603ccb07b)" d="M 68.644629 265.677558 
L 351.759962 265.677558 
" style="fill:none;stroke:#000000;stroke-width:0.708982;"></path>
<path clip-path="url(#p9603ccb07b)" d="M 68.644629 238.714193 
L 351.759962 238.714193 
" style="fill:none;stroke:#000000;stroke-width:0.708982;"></path>
<path clip-path="url(#p9603ccb07b)" d="M 68.644629 211.750828 
L 351.759962 211.750828 
" style="fill:none;stroke:#000000;stroke-width:0.708982;"></path>
<path clip-path="url(#p9603ccb07b)" d="M 68.644629 184.787463 
L 351.759962 184.787463 
" style="fill:none;stroke:#000000;stroke-width:0.708982;"></path>
<path clip-path="url(#p9603ccb07b)" d="M 68.644629 157.824098 
L 351.759962 157.824098 
" style="fill:none;stroke:#000000;stroke-width:0.708982;"></path>
<path clip-path="url(#p9603ccb07b)" d="M 68.644629 130.860733 
L 351.759962 130.860733 
" style="fill:none;stroke:#000000;stroke-width:0.708982;"></path>
<path clip-path="url(#p9603ccb07b)" d="M 68.644629 103.897368 
L 351.759962 103.897368 
" style="fill:none;stroke:#000000;stroke-width:0.708982;"></path>
<path clip-path="url(#p9603ccb07b)" d="M 68.644629 76.934003 
L 351.759962 76.934003 
" style="fill:none;stroke:#000000;stroke-width:0.708982;"></path>
<path clip-path="url(#p9603ccb07b)" d="M 68.644629 49.970638 
L 351.759962 49.970638 
" style="fill:none;stroke:#000000;stroke-width:0.708982;"></path>
</g>
<g id="LineCollection_2">
<path clip-path="url(#p9603ccb07b)" d="M 68.644629 319.604288 
L 358.500803 319.604288 
" style="fill:none;stroke:#000000;stroke-width:1.949699;"></path>
</g>
<g id="PathCollection_1">
<defs>
<path d="M 354.803282 -53.134987 
L 358.500803 -54.447587 
L 354.803282 -55.760188 
L 354.803282 -53.134987 
L 358.500803 -54.447587 
" id="me5ca0b9de8" style="stroke:#000000;stroke-linejoin:miter;stroke-width:1.949699;"></path>
</defs>
<g clip-path="url(#p9603ccb07b)">
<use style="stroke:#000000;stroke-linejoin:miter;stroke-width:1.949699;" x="0" xlink:href="#me5ca0b9de8" y="374.051875"></use>
</g>
</g>
<g id="LineCollection_3">
<path clip-path="url(#p9603ccb07b)" d="M 75.385471 326.345129 
L 75.385471 36.488955 
" style="fill:none;stroke:#000000;stroke-width:1.949699;"></path>
</g>
<g id="PathCollection_2">
<defs>
<path d="M 76.694708 -332.797269 
L 75.385471 -337.56292 
L 74.076233 -332.797269 
L 76.694708 -332.797269 
L 75.385471 -337.56292 
" id="m8c49c4f179" style="stroke:#000000;stroke-linejoin:miter;stroke-width:1.949699;"></path>
</defs>
<g clip-path="url(#p9603ccb07b)">
<use style="stroke:#000000;stroke-linejoin:miter;stroke-width:1.949699;" x="0" xlink:href="#m8c49c4f179" y="374.051875"></use>
</g>
</g>
<g id="LineCollection_4">
<path clip-path="url(#p9603ccb07b)" d="M 88.867153 324.571223 
L 88.867153 314.637352 
" style="fill:none;stroke:#000000;stroke-width:0.886227;"></path>
<path clip-path="url(#p9603ccb07b)" d="M 102.348836 324.571223 
L 102.348836 314.637352 
" style="fill:none;stroke:#000000;stroke-width:0.886227;"></path>
<path clip-path="url(#p9603ccb07b)" d="M 115.830518 324.571223 
L 115.830518 314.637352 
" style="fill:none;stroke:#000000;stroke-width:0.886227;"></path>
<path clip-path="url(#p9603ccb07b)" d="M 129.312201 324.571223 
L 129.312201 314.637352 
" style="fill:none;stroke:#000000;stroke-width:0.886227;"></path>
<path clip-path="url(#p9603ccb07b)" d="M 142.793883 324.571223 
L 142.793883 314.637352 
" style="fill:none;stroke:#000000;stroke-width:0.886227;"></path>
<path clip-path="url(#p9603ccb07b)" d="M 156.275566 324.571223 
L 156.275566 314.637352 
" style="fill:none;stroke:#000000;stroke-width:0.886227;"></path>
<path clip-path="url(#p9603ccb07b)" d="M 169.757248 324.571223 
L 169.757248 314.637352 
" style="fill:none;stroke:#000000;stroke-width:0.886227;"></path>
<path clip-path="url(#p9603ccb07b)" d="M 183.238931 324.571223 
L 183.238931 314.637352 
" style="fill:none;stroke:#000000;stroke-width:0.886227;"></path>
<path clip-path="url(#p9603ccb07b)" d="M 196.720613 324.571223 
L 196.720613 314.637352 
" style="fill:none;stroke:#000000;stroke-width:0.886227;"></path>
<path clip-path="url(#p9603ccb07b)" d="M 210.202296 324.571223 
L 210.202296 314.637352 
" style="fill:none;stroke:#000000;stroke-width:0.886227;"></path>
<path clip-path="url(#p9603ccb07b)" d="M 223.683978 324.571223 
L 223.683978 314.637352 
" style="fill:none;stroke:#000000;stroke-width:0.886227;"></path>
<path clip-path="url(#p9603ccb07b)" d="M 237.165661 324.571223 
L 237.165661 314.637352 
" style="fill:none;stroke:#000000;stroke-width:0.886227;"></path>
<path clip-path="url(#p9603ccb07b)" d="M 250.647343 324.571223 
L 250.647343 314.637352 
" style="fill:none;stroke:#000000;stroke-width:0.886227;"></path>
<path clip-path="url(#p9603ccb07b)" d="M 264.129026 324.571223 
L 264.129026 314.637352 
" style="fill:none;stroke:#000000;stroke-width:0.886227;"></path>
<path clip-path="url(#p9603ccb07b)" d="M 277.610708 324.571223 
L 277.610708 314.637352 
" style="fill:none;stroke:#000000;stroke-width:0.886227;"></path>
<path clip-path="url(#p9603ccb07b)" d="M 291.092391 324.571223 
L 291.092391 314.637352 
" style="fill:none;stroke:#000000;stroke-width:0.886227;"></path>
<path clip-path="url(#p9603ccb07b)" d="M 304.574073 324.571223 
L 304.574073 314.637352 
" style="fill:none;stroke:#000000;stroke-width:0.886227;"></path>
<path clip-path="url(#p9603ccb07b)" d="M 318.055756 324.571223 
L 318.055756 314.637352 
" style="fill:none;stroke:#000000;stroke-width:0.886227;"></path>
<path clip-path="url(#p9603ccb07b)" d="M 331.537438 324.571223 
L 331.537438 314.637352 
" style="fill:none;stroke:#000000;stroke-width:0.886227;"></path>
<path clip-path="url(#p9603ccb07b)" d="M 345.019121 324.571223 
L 345.019121 314.637352 
" style="fill:none;stroke:#000000;stroke-width:0.886227;"></path>
</g>
<g id="LineCollection_5">
<path clip-path="url(#p9603ccb07b)" d="M 70.418535 292.640923 
L 80.352406 292.640923 
" style="fill:none;stroke:#000000;stroke-width:0.886227;"></path>
<path clip-path="url(#p9603ccb07b)" d="M 70.418535 265.677558 
L 80.352406 265.677558 
" style="fill:none;stroke:#000000;stroke-width:0.886227;"></path>
<path clip-path="url(#p9603ccb07b)" d="M 70.418535 238.714193 
L 80.352406 238.714193 
" style="fill:none;stroke:#000000;stroke-width:0.886227;"></path>
<path clip-path="url(#p9603ccb07b)" d="M 70.418535 211.750828 
L 80.352406 211.750828 
" style="fill:none;stroke:#000000;stroke-width:0.886227;"></path>
<path clip-path="url(#p9603ccb07b)" d="M 70.418535 184.787463 
L 80.352406 184.787463 
" style="fill:none;stroke:#000000;stroke-width:0.886227;"></path>
<path clip-path="url(#p9603ccb07b)" d="M 70.418535 157.824098 
L 80.352406 157.824098 
" style="fill:none;stroke:#000000;stroke-width:0.886227;"></path>
<path clip-path="url(#p9603ccb07b)" d="M 70.418535 130.860733 
L 80.352406 130.860733 
" style="fill:none;stroke:#000000;stroke-width:0.886227;"></path>
<path clip-path="url(#p9603ccb07b)" d="M 70.418535 103.897368 
L 80.352406 103.897368 
" style="fill:none;stroke:#000000;stroke-width:0.886227;"></path>
<path clip-path="url(#p9603ccb07b)" d="M 70.418535 76.934003 
L 80.352406 76.934003 
" style="fill:none;stroke:#000000;stroke-width:0.886227;"></path>
<path clip-path="url(#p9603ccb07b)" d="M 70.418535 49.970638 
L 80.352406 49.970638 
" style="fill:none;stroke:#000000;stroke-width:0.886227;"></path>
</g>
<g id="PolyCollection_1">
<path clip-path="url(#p9603ccb07b)" d="M 47.748022 273.766567 
L 47.748022 258.936716 
L 66.622377 258.936716 
L 66.622377 273.766567 
z
" style="fill:#ffffff;"></path>
</g>
<g id="text_3">
<g clip-path="url(#p9603ccb07b)">
<!-- 10 -->
<defs>
<path d="M 12.796875 48.4375 
Q 12.203125 48.734375 11.609375 49.5625 
Q 11.03125 50.390625 11.03125 50.875 
Q 11.03125 51.265625 11.234375 51.46875 
Q 27.734375 62.703125 28.125 62.703125 
L 28.328125 62.703125 
Q 29.109375 62.703125 29.5 60.84375 
Q 28.515625 57.625 28.515625 51.65625 
L 28.515625 13.1875 
Q 28.515625 7.515625 29.296875 4.5 
Q 29.5 3.8125 32.171875 3.171875 
Q 34.859375 2.546875 35.84375 2.546875 
Q 36.234375 2.546875 36.234375 0.78125 
Q 36.234375 -0.09375 36.140625 -0.296875 
Q 26.375 0.203125 24.3125 0.203125 
Q 22.75 0.203125 12.984375 -0.296875 
Q 12.59375 0.09375 12.59375 1.3125 
Q 12.59375 2.546875 12.984375 2.546875 
Q 14.265625 2.546875 16.9375 3.171875 
Q 19.625 3.8125 19.828125 4.5 
Q 20.40625 6.84375 20.40625 10.0625 
L 20.40625 45.21875 
Q 20.40625 48.046875 20.203125 49.515625 
Q 20.015625 50.984375 19.765625 51.3125 
Q 19.53125 51.65625 19.046875 51.65625 
Q 18.453125 51.65625 17.328125 51.0625 
Q 16.21875 50.484375 14.75 49.609375 
Q 13.28125 48.734375 12.796875 48.4375 
z
" id="CrimsonText-Regular-49"></path>
<path d="M 10.9375 31.25 
Q 10.9375 19.53125 14.359375 11.46875 
Q 17.78125 3.421875 23.140625 3.421875 
Q 29.390625 3.421875 32.859375 11.515625 
Q 36.328125 19.625 36.328125 31.734375 
Q 36.328125 43.359375 32.90625 51.125 
Q 29.5 58.890625 24.125 58.890625 
Q 18.171875 58.890625 14.546875 50.96875 
Q 10.9375 43.0625 10.9375 31.25 
z
M 2.34375 31.15625 
Q 2.34375 44.4375 8.109375 53.515625 
Q 13.875 62.59375 23.640625 62.59375 
Q 33.5 62.59375 39.203125 53.5625 
Q 44.921875 44.53125 44.921875 31.15625 
Q 44.921875 17.875 39.15625 8.78125 
Q 33.40625 -0.296875 23.640625 -0.296875 
Q 13.96875 -0.296875 8.15625 8.828125 
Q 2.34375 17.96875 2.34375 31.15625 
z
" id="CrimsonText-Regular-48"></path>
</defs>
<g transform="translate(47.042043 271.93308)scale(0.2 -0.2)">
<use xlink:href="#CrimsonText-Regular-49"></use>
<use x="47.265625" xlink:href="#CrimsonText-Regular-48"></use>
</g>
</g>
</g>
<g id="text_4">
<g clip-path="url(#p9603ccb07b)">
<!-- 10 -->
<g transform="translate(47.042043 271.93308)scale(0.2 -0.2)">
<use xlink:href="#CrimsonText-Regular-49"></use>
<use x="47.265625" xlink:href="#CrimsonText-Regular-48"></use>
</g>
</g>
</g>
<g id="PolyCollection_2">
<path clip-path="url(#p9603ccb07b)" d="M 47.748022 219.839837 
L 47.748022 205.009986 
L 66.622377 205.009986 
L 66.622377 219.839837 
z
" style="fill:#ffffff;"></path>
</g>
<g id="text_5">
<g clip-path="url(#p9603ccb07b)">
<!-- 20 -->
<defs>
<path d="M 25 62.703125 
Q 31.546875 62.703125 35.296875 57.8125 
Q 39.0625 52.9375 39.0625 46.78125 
Q 39.0625 43.171875 37.84375 39.3125 
Q 36.625 35.453125 34.03125 31.4375 
Q 31.453125 27.4375 29.34375 24.453125 
Q 27.25 21.484375 23.53125 17.578125 
Q 19.828125 13.671875 18.40625 12.203125 
Q 17 10.75 13.875 7.71875 
Q 13.578125 7.234375 14.0625 7.03125 
L 32.90625 7.03125 
Q 35.640625 7.03125 36.859375 8.59375 
Q 38.09375 10.15625 39.359375 14.546875 
Q 39.75 15.625 40.71875 15.625 
Q 42 15.625 42.484375 15.234375 
Q 40.140625 3.515625 39.84375 1.5625 
Q 39.65625 0 37.890625 0 
L 5.859375 0 
Q 5.46875 0 5.125 1.125 
Q 4.78125 2.25 4.78125 2.9375 
Q 15.4375 13.671875 23.046875 25.234375 
Q 30.671875 36.8125 30.671875 44.828125 
Q 30.671875 50.09375 28.03125 52.96875 
Q 25.390625 55.859375 21.09375 55.859375 
Q 12.984375 55.859375 8.109375 47.75 
Q 7.515625 47.75 6.875 48.390625 
Q 6.25 49.03125 6.25 49.3125 
Q 6.546875 50.484375 7.859375 52.484375 
Q 9.1875 54.5 11.375 56.890625 
Q 13.578125 59.28125 17.234375 60.984375 
Q 20.90625 62.703125 25 62.703125 
z
" id="CrimsonText-Regular-50"></path>
</defs>
<g transform="translate(47.042043 218.00635)scale(0.2 -0.2)">
<use xlink:href="#CrimsonText-Regular-50"></use>
<use x="47.265625" xlink:href="#CrimsonText-Regular-48"></use>
</g>
</g>
</g>
<g id="text_6">
<g clip-path="url(#p9603ccb07b)">
<!-- 20 -->
<g transform="translate(47.042043 218.00635)scale(0.2 -0.2)">
<use xlink:href="#CrimsonText-Regular-50"></use>
<use x="47.265625" xlink:href="#CrimsonText-Regular-48"></use>
</g>
</g>
</g>
<g id="PolyCollection_3">
<path clip-path="url(#p9603ccb07b)" d="M 47.748022 165.913107 
L 47.748022 151.083256 
L 66.622377 151.083256 
L 66.622377 165.913107 
z
" style="fill:#ffffff;"></path>
</g>
<g id="text_7">
<g clip-path="url(#p9603ccb07b)">
<!-- 30 -->
<defs>
<path d="M 24.421875 62.703125 
Q 28.609375 62.703125 32.46875 59.234375 
Q 36.328125 55.765625 36.328125 50.203125 
Q 36.328125 45.90625 34.21875 42.921875 
Q 32.125 39.9375 28.21875 37.015625 
Q 33.40625 35.15625 37.640625 30.859375 
Q 41.890625 26.5625 41.890625 20.125 
Q 41.890625 10.84375 35.34375 5.171875 
Q 28.8125 -0.484375 19.140625 -0.484375 
Q 10.84375 -0.484375 6.453125 2.4375 
Q 5.46875 3.125 5.46875 5.28125 
Q 5.46875 9.859375 9.078125 9.859375 
Q 9.96875 9.859375 10.890625 9.125 
Q 11.8125 8.40625 12.9375 7.234375 
Q 14.0625 6.0625 14.84375 5.46875 
Q 17.671875 3.421875 22.265625 3.421875 
Q 26.5625 3.421875 30.03125 6.78125 
Q 33.5 10.15625 33.5 17.578125 
Q 33.5 23.34375 29.78125 27.34375 
Q 26.078125 31.34375 21.09375 31.34375 
Q 17.484375 31.34375 14.75 30.671875 
Q 14.0625 31.546875 14.0625 33.203125 
Q 14.0625 33.890625 14.265625 34.1875 
Q 21 35.359375 25 38.875 
Q 29 42.390625 29 48.4375 
Q 29 51.765625 26.40625 54.34375 
Q 23.828125 56.9375 20.515625 56.9375 
Q 18.359375 56.9375 16.546875 56.203125 
Q 14.75 55.46875 13.8125 54.6875 
Q 12.890625 53.90625 12.015625 52.96875 
Q 11.140625 52.046875 11.03125 51.953125 
Q 10.640625 51.953125 10.25 52.875 
Q 9.859375 53.8125 9.859375 54.5 
Q 12.5 58.40625 15.8125 60.546875 
Q 19.140625 62.703125 24.421875 62.703125 
z
" id="CrimsonText-Regular-51"></path>
</defs>
<g transform="translate(47.023293 164.079621)scale(0.2 -0.2)">
<use xlink:href="#CrimsonText-Regular-51"></use>
<use x="47.363281" xlink:href="#CrimsonText-Regular-48"></use>
</g>
</g>
</g>
<g id="text_8">
<g clip-path="url(#p9603ccb07b)">
<!-- 30 -->
<g transform="translate(47.023293 164.079621)scale(0.2 -0.2)">
<use xlink:href="#CrimsonText-Regular-51"></use>
<use x="47.363281" xlink:href="#CrimsonText-Regular-48"></use>
</g>
</g>
</g>
<g id="PolyCollection_4">
<path clip-path="url(#p9603ccb07b)" d="M 47.748022 111.986377 
L 47.748022 97.156526 
L 66.622377 97.156526 
L 66.622377 111.986377 
z
" style="fill:#ffffff;"></path>
</g>
<g id="text_9">
<g clip-path="url(#p9603ccb07b)">
<!-- 40 -->
<defs>
<path d="M 35.0625 62.984375 
Q 36.328125 62.984375 36.328125 62.015625 
L 36.328125 22.65625 
L 42.390625 22.65625 
Q 43.953125 22.65625 43.953125 17.96875 
Q 43.953125 17.390625 43.359375 17 
Q 43.359375 17 36.328125 17 
L 36.328125 -0.09375 
Q 36.03125 -0.59375 32.234375 -0.59375 
Q 28.609375 -0.59375 28.609375 0.203125 
L 28.609375 17 
L 3.90625 17 
Q 3.21875 17.875 3.21875 20.015625 
L 32.8125 61.8125 
Q 33.6875 62.984375 35.0625 62.984375 
z
M 28.609375 22.65625 
L 28.609375 48.640625 
Q 28.609375 49.515625 28.125 49.515625 
Q 28.125 49.421875 28.03125 49.3125 
L 10.25 23.828125 
Q 10.15625 23.734375 10.15625 23.53125 
Q 10.15625 22.65625 10.84375 22.65625 
z
" id="CrimsonText-Regular-52"></path>
</defs>
<g transform="translate(47.079543 110.152891)scale(0.2 -0.2)">
<use xlink:href="#CrimsonText-Regular-52"></use>
<use x="47.070312" xlink:href="#CrimsonText-Regular-48"></use>
</g>
</g>
</g>
<g id="text_10">
<g clip-path="url(#p9603ccb07b)">
<!-- 40 -->
<g transform="translate(47.079543 110.152891)scale(0.2 -0.2)">
<use xlink:href="#CrimsonText-Regular-52"></use>
<use x="47.070312" xlink:href="#CrimsonText-Regular-48"></use>
</g>
</g>
</g>
<g id="PolyCollection_5">
<path clip-path="url(#p9603ccb07b)" d="M 47.748022 58.059647 
L 47.748022 43.229796 
L 66.622377 43.229796 
L 66.622377 58.059647 
z
" style="fill:#ffffff;"></path>
</g>
<g id="text_11">
<g clip-path="url(#p9603ccb07b)">
<!-- 50 -->
<defs>
<path d="M 13.578125 60.84375 
Q 32.8125 61.421875 36.53125 62.203125 
Q 37.015625 61.53125 37.015625 60.15625 
Q 37.015625 57.71875 36.421875 54.78125 
Q 33.890625 54 25.390625 53.71875 
L 16.890625 53.328125 
Q 16.40625 53.21875 16.21875 52.546875 
Q 15.140625 47.171875 13.375 36.921875 
Q 16.609375 38.1875 22.5625 38.1875 
Q 30.375 38.1875 36.078125 32.8125 
Q 41.796875 27.4375 41.796875 20.125 
Q 41.796875 11.140625 35.5 5.328125 
Q 29.203125 -0.484375 19.625 -0.484375 
Q 10.9375 -0.484375 6.546875 2.4375 
Q 5.5625 3.125 5.5625 5.28125 
Q 5.5625 9.859375 9.1875 9.859375 
Q 10.0625 9.859375 10.984375 9.125 
Q 11.921875 8.40625 13.03125 7.234375 
Q 14.15625 6.0625 14.9375 5.46875 
Q 17.78125 3.421875 22.75 3.421875 
Q 26.859375 3.421875 30.125 6.890625 
Q 33.40625 10.359375 33.40625 17.578125 
Q 33.40625 20.125 32.71875 22.359375 
Q 32.03125 24.609375 30.515625 26.796875 
Q 29 29 26.0625 30.265625 
Q 23.140625 31.546875 19.140625 31.546875 
Q 14.0625 31.546875 10.640625 30.46875 
Q 9.859375 30.859375 8.890625 31.84375 
z
" id="CrimsonText-Regular-53"></path>
</defs>
<g transform="translate(47.023293 56.226161)scale(0.2 -0.2)">
<use xlink:href="#CrimsonText-Regular-53"></use>
<use x="47.363281" xlink:href="#CrimsonText-Regular-48"></use>
</g>
</g>
</g>
<g id="text_12">
<g clip-path="url(#p9603ccb07b)">
<!-- 50 -->
<g transform="translate(47.023293 56.226161)scale(0.2 -0.2)">
<use xlink:href="#CrimsonText-Regular-53"></use>
<use x="47.363281" xlink:href="#CrimsonText-Regular-48"></use>
</g>
</g>
</g>
<g id="PolyCollection_6">
<path clip-path="url(#p9603ccb07b)" d="M 90.889406 339.152727 
L 90.889406 324.322877 
L 109.763761 324.322877 
L 109.763761 339.152727 
z
" style="fill:#ffffff;"></path>
</g>
<g id="text_13">
<g clip-path="url(#p9603ccb07b)">
<!-- 10 -->
<g transform="translate(90.183427 337.656283)scale(0.2 -0.2)">
<use xlink:href="#CrimsonText-Regular-49"></use>
<use x="47.265625" xlink:href="#CrimsonText-Regular-48"></use>
</g>
</g>
</g>
<g id="text_14">
<g clip-path="url(#p9603ccb07b)">
<!-- 10 -->
<g transform="translate(90.183427 337.656283)scale(0.2 -0.2)">
<use xlink:href="#CrimsonText-Regular-49"></use>
<use x="47.265625" xlink:href="#CrimsonText-Regular-48"></use>
</g>
</g>
</g>
<g id="PolyCollection_7">
<path clip-path="url(#p9603ccb07b)" d="M 117.852771 339.152727 
L 117.852771 324.322877 
L 136.727126 324.322877 
L 136.727126 339.152727 
z
" style="fill:#ffffff;"></path>
</g>
<g id="text_15">
<g clip-path="url(#p9603ccb07b)">
<!-- 20 -->
<g transform="translate(117.146792 337.656283)scale(0.2 -0.2)">
<use xlink:href="#CrimsonText-Regular-50"></use>
<use x="47.265625" xlink:href="#CrimsonText-Regular-48"></use>
</g>
</g>
</g>
<g id="text_16">
<g clip-path="url(#p9603ccb07b)">
<!-- 20 -->
<g transform="translate(117.146792 337.656283)scale(0.2 -0.2)">
<use xlink:href="#CrimsonText-Regular-50"></use>
<use x="47.265625" xlink:href="#CrimsonText-Regular-48"></use>
</g>
</g>
</g>
<g id="PolyCollection_8">
<path clip-path="url(#p9603ccb07b)" d="M 144.816136 339.152727 
L 144.816136 324.322877 
L 163.690491 324.322877 
L 163.690491 339.152727 
z
" style="fill:#ffffff;"></path>
</g>
<g id="text_17">
<g clip-path="url(#p9603ccb07b)">
<!-- 30 -->
<g transform="translate(144.091407 337.656283)scale(0.2 -0.2)">
<use xlink:href="#CrimsonText-Regular-51"></use>
<use x="47.363281" xlink:href="#CrimsonText-Regular-48"></use>
</g>
</g>
</g>
<g id="text_18">
<g clip-path="url(#p9603ccb07b)">
<!-- 30 -->
<g transform="translate(144.091407 337.656283)scale(0.2 -0.2)">
<use xlink:href="#CrimsonText-Regular-51"></use>
<use x="47.363281" xlink:href="#CrimsonText-Regular-48"></use>
</g>
</g>
</g>
<g id="PolyCollection_9">
<path clip-path="url(#p9603ccb07b)" d="M 171.779501 339.152727 
L 171.779501 324.322877 
L 190.653856 324.322877 
L 190.653856 339.152727 
z
" style="fill:#ffffff;"></path>
</g>
<g id="text_19">
<g clip-path="url(#p9603ccb07b)">
<!-- 40 -->
<g transform="translate(171.111022 337.656283)scale(0.2 -0.2)">
<use xlink:href="#CrimsonText-Regular-52"></use>
<use x="47.070312" xlink:href="#CrimsonText-Regular-48"></use>
</g>
</g>
</g>
<g id="text_20">
<g clip-path="url(#p9603ccb07b)">
<!-- 40 -->
<g transform="translate(171.111022 337.656283)scale(0.2 -0.2)">
<use xlink:href="#CrimsonText-Regular-52"></use>
<use x="47.070312" xlink:href="#CrimsonText-Regular-48"></use>
</g>
</g>
</g>
<g id="PolyCollection_10">
<path clip-path="url(#p9603ccb07b)" d="M 198.742866 339.152727 
L 198.742866 324.322877 
L 217.617221 324.322877 
L 217.617221 339.152727 
z
" style="fill:#ffffff;"></path>
</g>
<g id="text_21">
<g clip-path="url(#p9603ccb07b)">
<!-- 50 -->
<g transform="translate(198.018137 337.656283)scale(0.2 -0.2)">
<use xlink:href="#CrimsonText-Regular-53"></use>
<use x="47.363281" xlink:href="#CrimsonText-Regular-48"></use>
</g>
</g>
</g>
<g id="text_22">
<g clip-path="url(#p9603ccb07b)">
<!-- 50 -->
<g transform="translate(198.018137 337.656283)scale(0.2 -0.2)">
<use xlink:href="#CrimsonText-Regular-53"></use>
<use x="47.363281" xlink:href="#CrimsonText-Regular-48"></use>
</g>
</g>
</g>
<g id="PolyCollection_11">
<path clip-path="url(#p9603ccb07b)" d="M 225.70623 339.152727 
L 225.70623 324.322877 
L 244.580586 324.322877 
L 244.580586 339.152727 
z
" style="fill:#ffffff;"></path>
</g>
<g id="text_23">
<g clip-path="url(#p9603ccb07b)">
<!-- 60 -->
<defs>
<path d="M 12.703125 20.515625 
Q 12.703125 13.671875 15.96875 8.4375 
Q 19.234375 3.21875 24.125 3.21875 
Q 28.421875 3.21875 31.640625 6.984375 
Q 34.859375 10.75 34.859375 17 
Q 34.859375 23.640625 31.6875 27.9375 
Q 28.515625 32.234375 22.359375 32.234375 
Q 19.734375 32.234375 17.28125 30.8125 
Q 14.84375 29.390625 14.15625 27.828125 
Q 12.796875 24.703125 12.703125 20.515625 
z
M 22.953125 -0.59375 
Q 14.84375 -0.59375 9.5625 5.703125 
Q 4.296875 12.015625 4.296875 20.3125 
Q 4.296875 27.9375 7.328125 34.96875 
Q 10.359375 42 15.484375 47.3125 
Q 20.609375 52.640625 26.515625 56.59375 
Q 32.421875 60.546875 39.0625 63.1875 
Q 39.65625 63.1875 40.484375 62.109375 
Q 41.3125 61.03125 41.3125 60.546875 
Q 31.453125 56.25 24.5625 50.140625 
Q 17.671875 44.046875 15.046875 34.375 
Q 14.84375 33.40625 15.140625 33.40625 
Q 15.328125 33.5 15.4375 33.59375 
Q 16.796875 34.671875 20.359375 35.9375 
Q 23.921875 37.203125 26.859375 37.203125 
Q 33.6875 37.203125 38.328125 31.484375 
Q 42.96875 25.78125 42.96875 19.046875 
Q 42.96875 10.9375 36.90625 5.171875 
Q 30.859375 -0.59375 22.953125 -0.59375 
z
" id="CrimsonText-Regular-54"></path>
</defs>
<g transform="translate(225.000252 337.656283)scale(0.2 -0.2)">
<use xlink:href="#CrimsonText-Regular-54"></use>
<use x="47.265625" xlink:href="#CrimsonText-Regular-48"></use>
</g>
</g>
</g>
<g id="text_24">
<g clip-path="url(#p9603ccb07b)">
<!-- 60 -->
<g transform="translate(225.000252 337.656283)scale(0.2 -0.2)">
<use xlink:href="#CrimsonText-Regular-54"></use>
<use x="47.265625" xlink:href="#CrimsonText-Regular-48"></use>
</g>
</g>
</g>
<g id="PolyCollection_12">
<path clip-path="url(#p9603ccb07b)" d="M 252.669595 339.152727 
L 252.669595 324.322877 
L 271.543951 324.322877 
L 271.543951 339.152727 
z
" style="fill:#ffffff;"></path>
</g>
<g id="text_25">
<g clip-path="url(#p9603ccb07b)">
<!-- 70 -->
<defs>
<path d="M 12.984375 54 
Q 11.328125 54 10 52.625 
Q 8.6875 51.265625 8.09375 49.890625 
Q 7.515625 48.53125 6.84375 46.296875 
Q 6.734375 45.90625 5.46875 45.796875 
Q 4.203125 45.703125 3.515625 46 
Q 3.71875 46.875 4.9375 52.484375 
Q 6.15625 58.109375 6.546875 60.640625 
Q 6.640625 61.8125 8.109375 61.8125 
L 36.328125 61.8125 
Q 37.890625 61.8125 40.328125 61.953125 
Q 42.78125 62.109375 42.875 62.109375 
Q 43.5625 62.109375 43.5625 61.234375 
Q 43.5625 60.640625 43.171875 59.71875 
Q 42.78125 58.796875 41.9375 57.125 
Q 41.109375 55.46875 40.71875 54.6875 
L 15.046875 -0.296875 
Q 14.75 -0.59375 13.96875 -0.59375 
Q 12.890625 -0.59375 11.71875 0.4375 
Q 10.546875 1.46875 10.546875 2.15625 
L 36.53125 54 
z
" id="CrimsonText-Regular-55"></path>
</defs>
<g transform="translate(251.982367 337.656283)scale(0.2 -0.2)">
<use xlink:href="#CrimsonText-Regular-55"></use>
<use x="47.167969" xlink:href="#CrimsonText-Regular-48"></use>
</g>
</g>
</g>
<g id="text_26">
<g clip-path="url(#p9603ccb07b)">
<!-- 70 -->
<g transform="translate(251.982367 337.656283)scale(0.2 -0.2)">
<use xlink:href="#CrimsonText-Regular-55"></use>
<use x="47.167969" xlink:href="#CrimsonText-Regular-48"></use>
</g>
</g>
</g>
<g id="PolyCollection_13">
<path clip-path="url(#p9603ccb07b)" d="M 279.63296 339.152727 
L 279.63296 324.322877 
L 298.507316 324.322877 
L 298.507316 339.152727 
z
" style="fill:#ffffff;"></path>
</g>
<g id="text_27">
<g clip-path="url(#p9603ccb07b)">
<!-- 80 -->
<defs>
<path d="M 23.53125 2.640625 
Q 28.421875 2.640625 31.25 5.5625 
Q 34.078125 8.5 34.078125 13.484375 
Q 34.078125 16.3125 32.421875 19.09375 
Q 30.765625 21.875 28.21875 24.015625 
Q 25.6875 26.171875 24.265625 27.140625 
Q 22.859375 28.125 21.578125 28.8125 
Q 21.1875 29 21 29 
Q 20.703125 29 20.609375 28.90625 
Q 16.5 26.375 14.6875 23.1875 
Q 12.890625 20.015625 12.890625 15.328125 
Q 12.890625 9.671875 16.109375 6.15625 
Q 19.34375 2.640625 23.53125 2.640625 
z
M 23.53125 59.375 
Q 19.921875 59.375 17.53125 56.25 
Q 15.140625 53.125 15.140625 48.046875 
Q 15.140625 41.40625 25.296875 35.546875 
Q 25.6875 35.359375 25.875 35.359375 
Q 26.171875 35.359375 26.46875 35.546875 
Q 33.109375 39.9375 33.109375 47.46875 
Q 33.109375 52.046875 30.421875 55.703125 
Q 27.734375 59.375 23.53125 59.375 
z
M 24.125 62.796875 
Q 30.859375 62.796875 35.5 58.734375 
Q 40.140625 54.6875 40.140625 47.953125 
Q 40.140625 40.53125 29.203125 33.59375 
Q 28.515625 33.40625 29.203125 33.015625 
Q 34.28125 30.078125 38.140625 25.625 
Q 42 21.1875 42 16.3125 
Q 42 9.078125 36.375 4.09375 
Q 30.765625 -0.875 23.34375 -0.875 
Q 15.234375 -0.875 10.203125 3.515625 
Q 5.171875 7.90625 5.171875 15.046875 
Q 5.171875 16.3125 5.46875 17.53125 
Q 5.765625 18.75 6.109375 19.71875 
Q 6.453125 20.703125 7.234375 21.828125 
Q 8.015625 22.953125 8.546875 23.6875 
Q 9.078125 24.421875 10.15625 25.390625 
Q 11.234375 26.375 11.71875 26.8125 
Q 12.203125 27.25 13.46875 28.125 
Q 14.75 29 15.09375 29.25 
Q 15.4375 29.5 16.609375 30.28125 
L 17.875 31.0625 
Q 18.359375 31.34375 17.875 31.640625 
Q 14.0625 33.890625 10.984375 37.9375 
Q 7.90625 42 7.90625 46.875 
Q 7.90625 53.125 12.78125 57.953125 
Q 17.671875 62.796875 24.125 62.796875 
z
" id="CrimsonText-Regular-56"></path>
</defs>
<g transform="translate(278.926982 337.656283)scale(0.2 -0.2)">
<use xlink:href="#CrimsonText-Regular-56"></use>
<use x="47.265625" xlink:href="#CrimsonText-Regular-48"></use>
</g>
</g>
</g>
<g id="text_28">
<g clip-path="url(#p9603ccb07b)">
<!-- 80 -->
<g transform="translate(278.926982 337.656283)scale(0.2 -0.2)">
<use xlink:href="#CrimsonText-Regular-56"></use>
<use x="47.265625" xlink:href="#CrimsonText-Regular-48"></use>
</g>
</g>
</g>
<g id="PolyCollection_14">
<path clip-path="url(#p9603ccb07b)" d="M 306.596325 339.152727 
L 306.596325 324.322877 
L 325.470681 324.322877 
L 325.470681 339.152727 
z
" style="fill:#ffffff;"></path>
</g>
<g id="text_29">
<g clip-path="url(#p9603ccb07b)">
<!-- 90 -->
<defs>
<path d="M 34.46875 42.09375 
Q 34.46875 49.03125 31.203125 54.203125 
Q 27.9375 59.375 22.75 59.375 
Q 18.5625 59.375 15.53125 55.46875 
Q 12.5 51.5625 12.5 45.21875 
Q 12.5 38.875 15.71875 34.625 
Q 18.953125 30.375 24.90625 30.375 
Q 27.546875 30.375 29.984375 31.78125 
Q 32.421875 33.203125 33.109375 34.765625 
Q 34.375 37.703125 34.46875 42.09375 
z
M 24.3125 63.1875 
Q 32.328125 63.1875 37.59375 56.890625 
Q 42.875 50.59375 42.875 42.28125 
Q 42.875 34.671875 39.75 27.390625 
Q 36.625 20.125 31.6875 14.703125 
Q 26.765625 9.28125 21.234375 5.328125 
Q 15.71875 1.375 10.25 -0.59375 
Q 9.671875 -0.59375 8.890625 0.578125 
Q 8.109375 1.765625 8.109375 2.25 
Q 15.625 5.171875 22.5625 11.859375 
Q 29.5 18.5625 32.125 28.21875 
Q 32.328125 29.203125 32.03125 29.203125 
Q 31.84375 29.109375 31.734375 29 
Q 30.671875 27.734375 27.25 26.65625 
Q 23.828125 25.59375 21.1875 25.59375 
Q 14.15625 25.59375 9.265625 30.859375 
Q 4.390625 36.140625 4.390625 43.453125 
Q 4.390625 51.5625 10.390625 57.375 
Q 16.40625 63.1875 24.3125 63.1875 
z
" id="CrimsonText-Regular-57"></path>
</defs>
<g transform="translate(305.890347 337.656283)scale(0.2 -0.2)">
<use xlink:href="#CrimsonText-Regular-57"></use>
<use x="47.265625" xlink:href="#CrimsonText-Regular-48"></use>
</g>
</g>
</g>
<g id="text_30">
<g clip-path="url(#p9603ccb07b)">
<!-- 90 -->
<g transform="translate(305.890347 337.656283)scale(0.2 -0.2)">
<use xlink:href="#CrimsonText-Regular-57"></use>
<use x="47.265625" xlink:href="#CrimsonText-Regular-48"></use>
</g>
</g>
</g>
<g id="PolyCollection_15">
<path clip-path="url(#p9603ccb07b)" d="M 330.863354 339.152727 
L 330.863354 324.322877 
L 359.174887 324.322877 
L 359.174887 339.152727 
z
" style="fill:#ffffff;"></path>
</g>
<g id="text_31">
<g clip-path="url(#p9603ccb07b)">
<!-- 100 -->
<g transform="translate(330.141428 337.656283)scale(0.2 -0.2)">
<use xlink:href="#CrimsonText-Regular-49"></use>
<use x="47.265625" xlink:href="#CrimsonText-Regular-48"></use>
<use x="94.53125" xlink:href="#CrimsonText-Regular-48"></use>
</g>
</g>
</g>
<g id="text_32">
<g clip-path="url(#p9603ccb07b)">
<!-- 100 -->
<g transform="translate(330.141428 337.656283)scale(0.2 -0.2)">
<use xlink:href="#CrimsonText-Regular-49"></use>
<use x="47.265625" xlink:href="#CrimsonText-Regular-48"></use>
<use x="94.53125" xlink:href="#CrimsonText-Regular-48"></use>
</g>
</g>
</g>
<g id="text_33">
<g clip-path="url(#p9603ccb07b)">
<!-- O -->
<defs>
<path d="M 39.9375 61.03125 
Q 29.390625 61.03125 22.0625 50.140625 
Q 14.75 39.265625 14.75 26.078125 
Q 14.75 16.109375 19.09375 9.65625 
Q 23.4375 3.21875 31.453125 3.21875 
Q 41.609375 3.21875 49.03125 14.296875 
Q 56.453125 25.390625 56.453125 38.578125 
Q 56.453125 48.34375 52.15625 54.6875 
Q 47.859375 61.03125 39.9375 61.03125 
z
M 42.1875 65.140625 
Q 52.046875 65.140625 58.734375 57.765625 
Q 65.4375 50.390625 65.4375 39.9375 
Q 65.4375 29.390625 60.40625 19.921875 
Q 55.375 10.453125 46.875 4.734375 
Q 38.375 -0.984375 28.90625 -0.984375 
Q 18.453125 -0.984375 12.15625 6.484375 
Q 5.859375 13.96875 5.859375 25.296875 
Q 5.859375 35.453125 11.234375 44.78125 
Q 16.609375 54.109375 25 59.625 
Q 33.40625 65.140625 42.1875 65.140625 
z
" id="CrimsonText-Italic-79"></path>
</defs>
<g transform="translate(60.191585 333.098173)scale(0.2 -0.2)">
<use xlink:href="#CrimsonText-Italic-79"></use>
</g>
</g>
</g>
<g id="text_34">
<g clip-path="url(#p9603ccb07b)">
<!-- y -->
<defs>
<path d="M 21.09375 42.484375 
Q 24.03125 42.484375 25.921875 37.5 
Q 27.828125 32.515625 28.515625 24.453125 
Q 29.203125 16.40625 29.390625 11.859375 
Q 29.59375 7.328125 29.59375 2.734375 
Q 33.40625 7.421875 37.203125 14.6875 
Q 41.015625 21.96875 41.015625 27.828125 
Q 41.015625 33.59375 38.578125 38.28125 
Q 39.84375 42.484375 43.453125 42.484375 
Q 47.75 42.484375 47.75 34.765625 
Q 47.75 24.03125 39.34375 10.109375 
Q 30.953125 -3.8125 20.359375 -13.28125 
Q 9.765625 -22.75 3.21875 -22.75 
Q 0.6875 -22.75 -0.96875 -21.578125 
Q -2.640625 -20.40625 -2.640625 -18.75 
Q -2.640625 -15.625 -0.390625 -14.453125 
Q 1.765625 -15.71875 6.15625 -15.71875 
Q 14.265625 -15.71875 20.21875 -7.03125 
Q 22.46875 -3.71875 22.46875 6.0625 
Q 22.46875 10.84375 22.21875 15.578125 
Q 21.96875 20.3125 21.328125 25.296875 
Q 20.703125 30.28125 19.484375 33.34375 
Q 18.265625 36.421875 16.609375 36.421875 
Q 15.71875 36.421875 13.953125 34.765625 
Q 12.203125 33.109375 11.234375 31.84375 
Q 11.03125 31.84375 10.5 32.765625 
Q 9.96875 33.6875 9.96875 34.078125 
Q 10.546875 35.546875 14.59375 39.015625 
Q 18.65625 42.484375 21.09375 42.484375 
z
" id="CrimsonText-Italic-121"></path>
</defs>
<g transform="translate(70.707346 27.401023)scale(0.2 -0.2)">
<use xlink:href="#CrimsonText-Italic-121"></use>
</g>
</g>
</g>
<g id="text_35">
<g clip-path="url(#p9603ccb07b)">
<!-- x -->
<defs>
<path d="M 20.3125 42.484375 
Q 24.421875 42.484375 26.953125 33.984375 
L 29 27.046875 
L 34.765625 36.921875 
Q 37.984375 42.484375 42.96875 42.484375 
Q 46.296875 42.484375 48.640625 40.53125 
Q 49.421875 38.96875 49.421875 37.984375 
Q 49.421875 36.53125 48.390625 35.5 
Q 47.359375 34.46875 46.296875 34.46875 
Q 45.015625 34.46875 43.40625 35.984375 
Q 41.796875 37.5 40.4375 37.5 
Q 39.265625 37.5 37.796875 34.96875 
L 30.46875 22.46875 
L 34.671875 8.6875 
Q 35.640625 5.375 37.3125 5.375 
Q 38.765625 5.375 40.421875 6.890625 
Q 42.09375 8.40625 42.78125 9.671875 
Q 43.171875 9.671875 43.75 8.890625 
Q 44.34375 8.109375 44.34375 7.71875 
Q 44.046875 6.0625 40.71875 2.78125 
Q 37.40625 -0.484375 34.375 -0.484375 
Q 30.28125 -0.484375 27.734375 8.015625 
L 25.484375 15.625 
L 19.34375 4.984375 
Q 16.109375 -0.59375 11.140625 -0.59375 
Q 7.8125 -0.59375 5.46875 1.375 
Q 4.6875 2.734375 4.6875 3.90625 
Q 4.6875 5.375 5.703125 6.390625 
Q 6.734375 7.421875 7.8125 7.421875 
Q 9.078125 7.421875 10.6875 5.90625 
Q 12.3125 4.390625 13.671875 4.390625 
Q 14.84375 4.390625 16.3125 6.9375 
L 24.03125 20.21875 
L 20.015625 33.296875 
Q 19.046875 36.625 17.390625 36.625 
Q 15.921875 36.625 14.25 35.109375 
Q 12.59375 33.59375 11.921875 32.328125 
Q 11.53125 32.328125 10.9375 33.109375 
Q 10.359375 33.890625 10.359375 34.28125 
Q 10.640625 35.9375 13.953125 39.203125 
Q 17.28125 42.484375 20.3125 42.484375 
z
" id="CrimsonText-Italic-120"></path>
</defs>
<g transform="translate(361.267291 323.998038)scale(0.2 -0.2)">
<use xlink:href="#CrimsonText-Italic-120"></use>
</g>
</g>
</g>
<g id="line2d_1">
<path clip-path="url(#p9603ccb07b)" d="M 75.385471 103.897368 
L 241.812653 325.800278 
L 241.812653 325.800278 
" style="fill:none;stroke:#000000;stroke-linecap:square;stroke-width:2.3;"></path>
</g>
</g>
</g>
<defs>
<clipPath id="p9603ccb07b">
<rect height="347.76" width="349.984478" x="31.839636" y="7.2"></rect>
</clipPath>
</defs>
</svg>