<svg xmlns="http://www.w3.org/2000/svg" width="1126" height="344" viewBox="0 0 1126 344"><rect width="100%" height="100%" fill="white"/><text x="563" y="30" text-anchor="middle" font-family="Arial,sans-serif" font-size="22" font-weight="700">Employment by Sector in France and the United States, 1800–2012 (% of total employment)</text><rect x="8" y="52" width="95" height="68" fill="#f5f5f5" stroke="#222" stroke-width="2"/><text x="55.5" y="91.95" text-anchor="middle" font-family="Arial,sans-serif" font-size="17" font-weight="700">Year</text><rect x="103" y="52" width="175" height="68" fill="#f5f5f5" stroke="#222" stroke-width="2"/><text x="190.5" y="80.45" text-anchor="middle" font-family="Arial,sans-serif" font-size="17" font-weight="700">Agriculture in</text><text x="190.5" y="103.45" text-anchor="middle" font-family="Arial,sans-serif" font-size="17" font-weight="700">France</text><rect x="278" y="52" width="190" height="68" fill="#f5f5f5" stroke="#222" stroke-width="2"/><text x="373" y="80.45" text-anchor="middle" font-family="Arial,sans-serif" font-size="17" font-weight="700">Manufacturing in</text><text x="373" y="103.45" text-anchor="middle" font-family="Arial,sans-serif" font-size="17" font-weight="700">France</text><rect x="468" y="52" width="160" height="68" fill="#f5f5f5" stroke="#222" stroke-width="2"/><text x="548" y="80.45" text-anchor="middle" font-family="Arial,sans-serif" font-size="17" font-weight="700">Services in</text><text x="548" y="103.45" text-anchor="middle" font-family="Arial,sans-serif" font-size="17" font-weight="700">France</text><rect x="628" y="52" width="165" height="68" fill="#f5f5f5" stroke="#222" stroke-width="2"/><text x="710.5" y="80.45" text-anchor="middle" font-family="Arial,sans-serif" font-size="17" font-weight="700">Agriculture in</text><text x="710.5" y="103.45" text-anchor="middle" font-family="Arial,sans-serif" font-size="17" font-weight="700">US</text><rect x="793" y="52" width="180" height="68" fill="#f5f5f5" stroke="#222" stroke-width="2"/><text x="883" y="80.45" text-anchor="middle" font-family="Arial,sans-serif" font-size="17" font-weight="700">Manufacturing in</text><text x="883" y="103.45" text-anchor="middle" font-family="Arial,sans-serif" font-size="17" font-weight="700">US</text><rect x="973" y="52" width="145" height="68" fill="#f5f5f5" stroke="#222" stroke-width="2"/><text x="1045.5" y="80.45" text-anchor="middle" font-family="Arial,sans-serif" font-size="17" font-weight="700">Services in</text><text x="1045.5" y="103.45" text-anchor="middle" font-family="Arial,sans-serif" font-size="17" font-weight="700">US</text><rect x="8" y="120" width="95" height="54" fill="#f5f5f5" stroke="#222" stroke-width="2"/><text x="55.5" y="152.95" text-anchor="middle" font-family="Arial,sans-serif" font-size="17" font-weight="700">1800</text><rect x="103" y="120" width="175" height="54" fill="white" stroke="#222" stroke-width="2"/><text x="190.5" y="152.95" text-anchor="middle" font-family="Arial,sans-serif" font-size="17" font-weight="400">64</text><rect x="278" y="120" width="190" height="54" fill="white" stroke="#222" stroke-width="2"/><text x="373" y="152.95" text-anchor="middle" font-family="Arial,sans-serif" font-size="17" font-weight="400">22</text><rect x="468" y="120" width="160" height="54" fill="white" stroke="#222" stroke-width="2"/><text x="548" y="152.95" text-anchor="middle" font-family="Arial,sans-serif" font-size="17" font-weight="400">14</text><rect x="628" y="120" width="165" height="54" fill="white" stroke="#222" stroke-width="2"/><text x="710.5" y="152.95" text-anchor="middle" font-family="Arial,sans-serif" font-size="17" font-weight="400">68</text><rect x="793" y="120" width="180" height="54" fill="white" stroke="#222" stroke-width="2"/><text x="883" y="152.95" text-anchor="middle" font-family="Arial,sans-serif" font-size="17" font-weight="400">18</text><rect x="973" y="120" width="145" height="54" fill="white" stroke="#222" stroke-width="2"/><text x="1045.5" y="152.95" text-anchor="middle" font-family="Arial,sans-serif" font-size="17" font-weight="400">13</text><rect x="8" y="174" width="95" height="54" fill="#f5f5f5" stroke="#222" stroke-width="2"/><text x="55.5" y="206.95" text-anchor="middle" font-family="Arial,sans-serif" font-size="17" font-weight="700">1900</text><rect x="103" y="174" width="175" height="54" fill="white" stroke="#222" stroke-width="2"/><text x="190.5" y="206.95" text-anchor="middle" font-family="Arial,sans-serif" font-size="17" font-weight="400">43</text><rect x="278" y="174" width="190" height="54" fill="white" stroke="#222" stroke-width="2"/><text x="373" y="206.95" text-anchor="middle" font-family="Arial,sans-serif" font-size="17" font-weight="400">29</text><rect x="468" y="174" width="160" height="54" fill="white" stroke="#222" stroke-width="2"/><text x="548" y="206.95" text-anchor="middle" font-family="Arial,sans-serif" font-size="17" font-weight="400">28</text><rect x="628" y="174" width="165" height="54" fill="white" stroke="#222" stroke-width="2"/><text x="710.5" y="206.95" text-anchor="middle" font-family="Arial,sans-serif" font-size="17" font-weight="400">41</text><rect x="793" y="174" width="180" height="54" fill="white" stroke="#222" stroke-width="2"/><text x="883" y="206.95" text-anchor="middle" font-family="Arial,sans-serif" font-size="17" font-weight="400">28</text><rect x="973" y="174" width="145" height="54" fill="white" stroke="#222" stroke-width="2"/><text x="1045.5" y="206.95" text-anchor="middle" font-family="Arial,sans-serif" font-size="17" font-weight="400">31</text><rect x="8" y="228" width="95" height="54" fill="#f5f5f5" stroke="#222" stroke-width="2"/><text x="55.5" y="260.95" text-anchor="middle" font-family="Arial,sans-serif" font-size="17" font-weight="700">1950</text><rect x="103" y="228" width="175" height="54" fill="white" stroke="#222" stroke-width="2"/><text x="190.5" y="260.95" text-anchor="middle" font-family="Arial,sans-serif" font-size="17" font-weight="400">32</text><rect x="278" y="228" width="190" height="54" fill="white" stroke="#222" stroke-width="2"/><text x="373" y="260.95" text-anchor="middle" font-family="Arial,sans-serif" font-size="17" font-weight="400">33</text><rect x="468" y="228" width="160" height="54" fill="white" stroke="#222" stroke-width="2"/><text x="548" y="260.95" text-anchor="middle" font-family="Arial,sans-serif" font-size="17" font-weight="400">35</text><rect x="628" y="228" width="165" height="54" fill="white" stroke="#222" stroke-width="2"/><text x="710.5" y="260.95" text-anchor="middle" font-family="Arial,sans-serif" font-size="17" font-weight="400">14</text><rect x="793" y="228" width="180" height="54" fill="white" stroke="#222" stroke-width="2"/><text x="883" y="260.95" text-anchor="middle" font-family="Arial,sans-serif" font-size="17" font-weight="400">33</text><rect x="973" y="228" width="145" height="54" fill="white" stroke="#222" stroke-width="2"/><text x="1045.5" y="260.95" text-anchor="middle" font-family="Arial,sans-serif" font-size="17" font-weight="400">53</text><rect x="8" y="282" width="95" height="54" fill="#f5f5f5" stroke="#222" stroke-width="2"/><text x="55.5" y="314.95" text-anchor="middle" font-family="Arial,sans-serif" font-size="17" font-weight="700">2012</text><rect x="103" y="282" width="175" height="54" fill="white" stroke="#222" stroke-width="2"/><text x="190.5" y="314.95" text-anchor="middle" font-family="Arial,sans-serif" font-size="17" font-weight="400">3</text><rect x="278" y="282" width="190" height="54" fill="white" stroke="#222" stroke-width="2"/><text x="373" y="314.95" text-anchor="middle" font-family="Arial,sans-serif" font-size="17" font-weight="400">21</text><rect x="468" y="282" width="160" height="54" fill="white" stroke="#222" stroke-width="2"/><text x="548" y="314.95" text-anchor="middle" font-family="Arial,sans-serif" font-size="17" font-weight="400">76</text><rect x="628" y="282" width="165" height="54" fill="white" stroke="#222" stroke-width="2"/><text x="710.5" y="314.95" text-anchor="middle" font-family="Arial,sans-serif" font-size="17" font-weight="400">2</text><rect x="793" y="282" width="180" height="54" fill="white" stroke="#222" stroke-width="2"/><text x="883" y="314.95" text-anchor="middle" font-family="Arial,sans-serif" font-size="17" font-weight="400">18</text><rect x="973" y="282" width="145" height="54" fill="white" stroke="#222" stroke-width="2"/><text x="1045.5" y="314.95" text-anchor="middle" font-family="Arial,sans-serif" font-size="17" font-weight="400">80</text></svg>