<svg xmlns="http://www.w3.org/2000/svg" width="696" height="422" viewBox="0 0 696 422"><rect width="100%" height="100%" fill="white"/><text x="348" y="30" text-anchor="middle" font-family="Arial,sans-serif" font-size="22" font-weight="700">Average Number and Duration of Torpor Bouts and</text><text x="348" y="56" text-anchor="middle" font-family="Arial,sans-serif" font-size="22" font-weight="700">Arousal Episodes for Alaska Marmots and Arctic Ground</text><text x="348" y="82" text-anchor="middle" font-family="Arial,sans-serif" font-size="22" font-weight="700">Squirrels, 2008–2011</text><rect x="8" y="104" width="240" height="74" fill="#f5f5f5" stroke="#222" stroke-width="2"/><text x="128" y="148" text-anchor="middle" font-family="Arial,sans-serif" font-size="20" font-weight="700">Feature</text><rect x="248" y="104" width="210" height="74" fill="#f5f5f5" stroke="#222" stroke-width="2"/><text x="353" y="148" text-anchor="middle" font-family="Arial,sans-serif" font-size="20" font-weight="700">Alaska marmots</text><rect x="458" y="104" width="230" height="74" fill="#f5f5f5" stroke="#222" stroke-width="2"/><text x="573" y="135" text-anchor="middle" font-family="Arial,sans-serif" font-size="20" font-weight="700">Arctic ground</text><text x="573" y="161" text-anchor="middle" font-family="Arial,sans-serif" font-size="20" font-weight="700">squirrels</text><rect x="8" y="178" width="240" height="54" fill="#f5f5f5" stroke="#222" stroke-width="2"/><text x="128" y="212" text-anchor="middle" font-family="Arial,sans-serif" font-size="20" font-weight="700">torpor bouts</text><rect x="248" y="178" width="210" height="54" fill="white" stroke="#222" stroke-width="2"/><text x="353" y="212" text-anchor="middle" font-family="Arial,sans-serif" font-size="20" font-weight="400">12</text><rect x="458" y="178" width="230" height="54" fill="white" stroke="#222" stroke-width="2"/><text x="573" y="212" text-anchor="middle" font-family="Arial,sans-serif" font-size="20" font-weight="400">10.5</text><rect x="8" y="232" width="240" height="54" fill="#f5f5f5" stroke="#222" stroke-width="2"/><text x="128" y="266" text-anchor="middle" font-family="Arial,sans-serif" font-size="20" font-weight="700">duration per bout</text><rect x="248" y="232" width="210" height="54" fill="white" stroke="#222" stroke-width="2"/><text x="353" y="266" text-anchor="middle" font-family="Arial,sans-serif" font-size="20" font-weight="400">13.81 days</text><rect x="458" y="232" width="230" height="54" fill="white" stroke="#222" stroke-width="2"/><text x="573" y="266" text-anchor="middle" font-family="Arial,sans-serif" font-size="20" font-weight="400">16.77 days</text><rect x="8" y="286" width="240" height="54" fill="#f5f5f5" stroke="#222" stroke-width="2"/><text x="128" y="320" text-anchor="middle" font-family="Arial,sans-serif" font-size="20" font-weight="700">arousal episodes</text><rect x="248" y="286" width="210" height="54" fill="white" stroke="#222" stroke-width="2"/><text x="353" y="320" text-anchor="middle" font-family="Arial,sans-serif" font-size="20" font-weight="400">11</text><rect x="458" y="286" width="230" height="54" fill="white" stroke="#222" stroke-width="2"/><text x="573" y="320" text-anchor="middle" font-family="Arial,sans-serif" font-size="20" font-weight="400">9.5</text><rect x="8" y="340" width="240" height="74" fill="#f5f5f5" stroke="#222" stroke-width="2"/><text x="128" y="371" text-anchor="middle" font-family="Arial,sans-serif" font-size="20" font-weight="700">duration per</text><text x="128" y="397" text-anchor="middle" font-family="Arial,sans-serif" font-size="20" font-weight="700">episode</text><rect x="248" y="340" width="210" height="74" fill="white" stroke="#222" stroke-width="2"/><text x="353" y="384" text-anchor="middle" font-family="Arial,sans-serif" font-size="20" font-weight="400">21.2 hours</text><rect x="458" y="340" width="230" height="74" fill="white" stroke="#222" stroke-width="2"/><text x="573" y="384" text-anchor="middle" font-family="Arial,sans-serif" font-size="20" font-weight="400">14.2 hours</text></svg>